<?xml version="1.0" encoding="UTF-8"?>
<svg id="Layer_1" data-name="Layer 1" xmlns="http://www.w3.org/2000/svg" viewBox="0 0 1864.22 962.39">
  <defs>
    <style>
      .cls-1 {
        fill: #f2f7ea;
      }

      .cls-1, .cls-2, .cls-3, .cls-4, .cls-5 {
        fill-rule: evenodd;
      }

      .cls-2 {
        fill: #cdddaf;
      }

      .cls-3, .cls-6 {
        fill: #416b64;
      }

      .cls-4 {
        fill: #fff;
        opacity: .38;
      }

      .cls-5 {
        fill: #d895a3;
      }
    </style>
  </defs>
  <path class="cls-6" d="M101.58,874.68L42.2,209.23l-1.59-17.74,17.74,1.81,1196.31,123.33,2.92-221.33.37-29.67,23.38,18.28,567.09,443.62,15.79,12.36-16.47,11.34-573.36,395.21-23.13,15.95v-236.01L118.3,888l-15.36,2.18-1.36-15.5ZM73.07,224.42l56.4,632.21,1134.5-161.82,16.84-2.41v213.87l533.74-367.92L1286.58,125.34l-2.72,207.75-.2,16.12-16.01-1.64L73.07,224.42Z"/>
  <polygon class="cls-3" points="116.2 873.41 56.85 207.95 1269.15 332.93 1272.27 95.47 1839.39 539.12 1266.03 934.33 1266.03 709.38 116.2 873.41"/>
  <path class="cls-6" d="M60.94,809.08L1.59,143.62l-1.59-17.74,17.71,1.81,1196.34,123.33,2.89-221.33.4-29.7,23.38,18.28,567.09,443.65,15.79,12.36-16.49,11.34-573.33,395.21-23.13,15.93v-235.98L77.66,822.4l-15.33,2.18-1.39-15.5ZM32.45,158.81l56.4,632.21,1134.5-161.84,16.84-2.38v213.87l533.73-367.92L1245.97,59.74l-2.72,207.75-.23,16.12-15.98-1.64L32.45,158.81Z"/>
  <polygon class="cls-2" points="75.59 807.8 16.24 142.35 1228.54 267.32 1231.65 29.87 1798.75 473.52 1225.42 868.73 1225.42 643.78 75.59 807.8"/>
  <polygon class="cls-1" points="1225.42 868.73 1225.42 643.78 1267.51 595.23 1326.94 682.83 1267.51 788.56 1225.42 868.73"/>
  <path class="cls-1" d="M16.24,142.35l1212.3,124.97c-.11,8.62,41.52,46.62,41.52,46.62L62.75,189.5l-46.51-47.16Z"/>
  <path class="cls-2" d="M1225.42,643.78L75.59,807.8s30.89-47.33,38.03-47.95c7.17-.65,1153.88-164.62,1153.88-164.62l-42.09,48.54Z"/>
  <path class="cls-6" d="M140.15,726.3l1140.03-162.64,16.84-2.38v171.17l380.97-262.59-376.66-294.67-2.04,155.21-.23,16.12-15.98-1.64L95.2,222.43l44.95,503.87ZM1267.51,595.23L128.96,757.64l-15.33,2.21-1.39-15.53L64.34,207.24l-1.59-17.74,17.71,1.81,1189.6,122.62,2.24-168.79.4-29.67,23.35,18.28,415.8,325.27,15.79,12.33-16.47,11.36-420.54,289.88-23.13,15.95v-193.33Z"/>
  <polygon class="cls-5" points="126.89 743.08 1282.27 578.26 1282.27 760.5 1702.81 470.62 1287.01 145.35 1284.57 330.23 78.99 205.97 126.89 743.08"/>
  <path class="cls-4" d="M106.45,208.8c1.11,1.76,1.67,3.85,1.5,6.06-.43,5.64-5.47,9.89-11.25,9.47-5.81-.43-10.15-5.33-9.72-11,.2-2.44,1.22-4.62,2.81-6.26l16.67,1.73Z"/>
  <path class="cls-4" d="M95.74,236.69c5.81.42,10.15,5.36,9.72,11-.43,5.64-5.47,9.89-11.25,9.47-5.81-.4-10.15-5.33-9.72-10.97.43-5.67,5.47-9.92,11.25-9.49h0Z"/>
  <path class="cls-4" d="M93.27,269.53c5.78.4,10.12,5.33,9.69,10.97-.43,5.67-5.47,9.89-11.25,9.49-2.04-.14-3.88-.85-5.41-1.96l-1.39-15.42c2.1-2.1,5.1-3.34,8.36-3.09h0Z"/>
  <path class="cls-4" d="M90.78,302.35c5.78.42,10.15,5.33,9.69,11-.43,5.58-5.36,9.81-11.08,9.47l-1.79-20.21c1.02-.26,2.07-.34,3.17-.26h0Z"/>
  <path class="cls-4" d="M90.55,335.59c4.62,1.33,7.82,5.7,7.45,10.57-.28,3.74-2.58,6.86-5.78,8.42l-1.67-18.99Z"/>
  <path class="cls-4" d="M93.84,372.66c1.22,1.81,1.84,4.02,1.67,6.35-.09,1.13-.37,2.24-.82,3.26l-.85-9.61Z"/>
  <path class="cls-4" d="M140.69,212.32c.68,1.5,1.02,3.2.88,4.96-.43,5.67-5.47,9.89-11.25,9.49-5.78-.42-10.15-5.36-9.69-11,.14-1.98.85-3.83,1.98-5.3l18.08,1.84Z"/>
  <path class="cls-4" d="M129.38,239.12c5.78.43,10.15,5.33,9.69,11-.43,5.64-5.44,9.89-11.25,9.47-5.78-.42-10.12-5.33-9.69-11,.43-5.64,5.47-9.89,11.25-9.47h0Z"/>
  <path class="cls-4" d="M126.89,271.94c5.81.43,10.15,5.36,9.72,11-.43,5.64-5.47,9.89-11.25,9.47-5.81-.4-10.15-5.33-9.72-10.97.43-5.67,5.47-9.89,11.25-9.49h0Z"/>
  <path class="cls-4" d="M124.42,304.79c5.78.4,10.12,5.33,9.69,10.97-.43,5.67-5.47,9.92-11.25,9.49-5.78-.42-10.15-5.36-9.72-11,.43-5.64,5.47-9.89,11.28-9.47h0Z"/>
  <path class="cls-4" d="M121.93,337.6c5.78.43,10.12,5.33,9.69,11-.43,5.64-5.47,9.89-11.25,9.47-5.78-.42-10.15-5.33-9.69-11,.43-5.64,5.47-9.89,11.25-9.47h0Z"/>
  <path class="cls-4" d="M119.43,370.42c5.78.43,10.15,5.36,9.69,11-.43,5.67-5.44,9.89-11.25,9.49-5.78-.42-10.12-5.36-9.69-11,.43-5.67,5.47-9.89,11.25-9.49h0Z"/>
  <path class="cls-4" d="M116.94,403.26c5.78.43,10.15,5.33,9.72,11-.43,5.64-5.47,9.89-11.25,9.47-5.81-.42-10.15-5.33-9.72-11,.43-5.64,5.47-9.89,11.25-9.47h0Z"/>
  <path class="cls-4" d="M114.44,436.08c5.81.43,10.15,5.36,9.72,11-.43,5.64-5.47,9.89-11.25,9.47-5.78-.4-10.15-5.33-9.72-10.97.43-5.67,5.47-9.89,11.25-9.49h0Z"/>
  <path class="cls-4" d="M111.98,468.92c5.78.4,10.12,5.33,9.69,10.97-.43,5.67-5.47,9.92-11.25,9.49-2.49-.2-4.7-1.19-6.41-2.75l-1.22-13.66c2.07-2.69,5.47-4.34,9.18-4.05h0Z"/>
  <path class="cls-4" d="M109.48,501.74c5.78.43,10.15,5.33,9.69,11-.43,5.64-5.44,9.89-11.25,9.47-.26,0-.51-.03-.74-.09l-1.79-19.89c1.28-.4,2.66-.6,4.08-.48h0Z"/>
  <path class="cls-4" d="M108.29,534.76c5.13.99,8.81,5.58,8.42,10.8-.31,4.08-3,7.42-6.66,8.81l-1.76-19.61Z"/>
  <path class="cls-4" d="M111.53,570.75c1.87,2.01,2.92,4.73,2.69,7.65-.14,1.73-.71,3.34-1.59,4.7l-1.11-12.36Z"/>
  <path class="cls-4" d="M174.73,215.83c.4,1.22.57,2.52.48,3.88-.43,5.64-5.47,9.89-11.25,9.47-5.81-.42-10.15-5.33-9.72-11,.11-1.56.6-3.03,1.36-4.34l19.13,1.98Z"/>
  <path class="cls-4" d="M163.02,241.56c5.78.4,10.12,5.33,9.69,10.97-.43,5.67-5.47,9.89-11.25,9.49-5.78-.42-10.15-5.36-9.72-11,.43-5.67,5.47-9.89,11.28-9.47h0Z"/>
  <path class="cls-4" d="M160.53,274.38c5.78.43,10.12,5.33,9.69,11-.43,5.64-5.47,9.89-11.25,9.47-5.78-.42-10.12-5.33-9.69-11,.43-5.64,5.47-9.89,11.25-9.47h0Z"/>
  <path class="cls-4" d="M158.03,307.19c5.78.43,10.15,5.36,9.72,11-.45,5.67-5.47,9.89-11.28,9.47-5.78-.4-10.12-5.33-9.69-10.97.43-5.67,5.47-9.89,11.25-9.49h0Z"/>
  <path class="cls-4" d="M155.54,340.04c5.81.43,10.15,5.33,9.72,11-.43,5.64-5.47,9.89-11.25,9.47-5.81-.42-10.15-5.33-9.72-11,.43-5.64,5.47-9.89,11.25-9.47h0Z"/>
  <path class="cls-4" d="M153.07,372.86c5.78.43,10.12,5.36,9.69,11-.43,5.64-5.47,9.89-11.25,9.47-5.78-.4-10.15-5.33-9.72-10.97.43-5.67,5.47-9.92,11.28-9.49h0Z"/>
  <path class="cls-4" d="M150.58,405.7c5.78.4,10.12,5.33,9.69,10.97-.43,5.67-5.47,9.89-11.25,9.49-5.78-.42-10.12-5.36-9.69-11s5.47-9.89,11.25-9.47h0Z"/>
  <path class="cls-4" d="M148.09,438.52c5.78.43,10.15,5.33,9.72,11-.45,5.64-5.47,9.89-11.28,9.47-5.78-.42-10.12-5.33-9.69-11,.43-5.64,5.47-9.89,11.25-9.47h0Z"/>
  <path class="cls-4" d="M145.59,471.33c5.81.43,10.15,5.36,9.72,11-.43,5.67-5.47,9.89-11.25,9.47-5.81-.4-10.15-5.33-9.72-10.97.43-5.67,5.47-9.89,11.25-9.49h0Z"/>
  <path class="cls-4" d="M143.13,504.18c5.78.43,10.12,5.33,9.69,11-.43,5.64-5.47,9.89-11.25,9.47-5.78-.43-10.15-5.33-9.72-11,.43-5.64,5.47-9.89,11.28-9.47h0Z"/>
  <path class="cls-4" d="M140.63,536.99c5.78.43,10.12,5.36,9.69,11-.43,5.64-5.47,9.89-11.25,9.47-5.78-.4-10.12-5.33-9.69-10.97.43-5.67,5.47-9.92,11.25-9.49h0Z"/>
  <path class="cls-4" d="M138.14,569.84c5.78.4,10.15,5.33,9.72,10.97-.45,5.67-5.47,9.89-11.28,9.49-5.78-.43-10.12-5.36-9.69-11s5.47-9.89,11.25-9.47h0Z"/>
  <path class="cls-4" d="M135.64,602.66c5.81.42,10.15,5.33,9.72,11-.43,5.64-5.47,9.89-11.25,9.47-5.81-.43-10.15-5.33-9.72-11,.43-5.64,5.47-9.89,11.25-9.47h0Z"/>
  <path class="cls-4" d="M133.18,635.47c5.78.42,10.12,5.36,9.69,11-.43,5.67-5.47,9.89-11.25,9.49-5.78-.43-10.15-5.36-9.72-11,.43-5.67,5.47-9.89,11.28-9.49h0Z"/>
  <path class="cls-4" d="M130.68,668.32c5.78.42,10.12,5.33,9.69,11-.43,5.64-5.47,9.89-11.25,9.47-3.03-.23-5.67-1.67-7.43-3.8l-1.02-11.39c1.93-3.4,5.75-5.58,10-5.27h0Z"/>
  <path class="cls-4" d="M128.19,701.13c5.78.42,10.15,5.36,9.72,11-.45,5.64-5.47,9.89-11.28,9.47-.57-.03-1.13-.11-1.67-.26l-1.73-19.38c1.5-.62,3.2-.94,4.96-.82h0Z"/>
  <path class="cls-4" d="M126.09,734.01c4.51.48,8.11,3.74,9.07,7.88l-8.28,1.19-.79-9.07Z"/>
  <path class="cls-4" d="M208.65,219.32c.2.91.26,1.87.17,2.83-.43,5.64-5.47,9.89-11.25,9.47-5.78-.43-10.12-5.33-9.69-11,.09-1.19.37-2.32.85-3.34l19.92,2.04Z"/>
  <path class="cls-4" d="M196.64,243.97c5.78.43,10.15,5.36,9.72,11-.43,5.64-5.47,9.89-11.28,9.47-5.78-.4-10.12-5.33-9.69-10.97.43-5.67,5.47-9.92,11.25-9.49h0Z"/>
  <path class="cls-4" d="M194.14,276.81c5.81.4,10.15,5.33,9.72,10.97-.43,5.67-5.47,9.89-11.25,9.49-5.81-.43-10.15-5.36-9.72-11,.43-5.64,5.47-9.89,11.25-9.47h0Z"/>
  <path class="cls-4" d="M191.68,309.63c5.78.43,10.12,5.33,9.69,11-.43,5.64-5.47,9.89-11.25,9.47-5.78-.43-10.15-5.33-9.72-11,.45-5.64,5.47-9.89,11.28-9.47h0Z"/>
  <path class="cls-4" d="M189.18,342.45c5.78.43,10.12,5.36,9.69,11-.43,5.67-5.47,9.89-11.25,9.49-5.78-.43-10.12-5.36-9.69-11,.43-5.67,5.47-9.89,11.25-9.49h0Z"/>
  <path class="cls-4" d="M186.69,375.29c5.78.43,10.15,5.33,9.72,11-.43,5.64-5.47,9.89-11.28,9.47-5.78-.43-10.12-5.33-9.69-11,.43-5.64,5.47-9.89,11.25-9.47h0Z"/>
  <path class="cls-4" d="M184.19,408.11c5.81.43,10.15,5.36,9.72,11-.43,5.64-5.47,9.89-11.25,9.47-5.81-.4-10.15-5.33-9.72-10.97.43-5.67,5.47-9.92,11.25-9.49h0Z"/>
  <path class="cls-4" d="M181.73,440.95c5.78.4,10.12,5.33,9.69,10.97-.43,5.67-5.47,9.92-11.25,9.49-5.78-.43-10.15-5.36-9.72-11,.45-5.64,5.47-9.89,11.28-9.47h0Z"/>
  <path class="cls-4" d="M179.23,473.77c5.78.43,10.12,5.33,9.69,11-.43,5.64-5.47,9.89-11.25,9.47-5.78-.43-10.12-5.33-9.69-11,.43-5.64,5.47-9.89,11.25-9.47h0Z"/>
  <path class="cls-4" d="M176.74,506.59c5.78.43,10.15,5.36,9.72,11-.45,5.67-5.47,9.89-11.28,9.49-5.78-.43-10.12-5.36-9.69-11,.43-5.67,5.47-9.89,11.25-9.49h0Z"/>
  <path class="cls-4" d="M174.25,539.43c5.81.43,10.15,5.33,9.72,11-.43,5.64-5.47,9.89-11.25,9.47-5.81-.43-10.15-5.33-9.72-11,.43-5.64,5.47-9.89,11.25-9.47h0Z"/>
  <path class="cls-4" d="M171.78,572.25c5.78.43,10.12,5.36,9.69,11-.43,5.64-5.47,9.89-11.25,9.47-5.78-.4-10.15-5.33-9.72-10.97.45-5.67,5.47-9.89,11.28-9.49h0Z"/>
  <path class="cls-4" d="M169.29,605.09c5.78.4,10.12,5.33,9.69,10.97-.43,5.67-5.47,9.92-11.25,9.49-5.78-.43-10.12-5.36-9.69-11,.43-5.64,5.47-9.89,11.25-9.47h0Z"/>
  <path class="cls-4" d="M166.79,637.91c5.78.42,10.15,5.33,9.72,11-.45,5.64-5.47,9.89-11.28,9.47-5.78-.43-10.12-5.33-9.69-11,.43-5.64,5.47-9.89,11.25-9.47h0Z"/>
  <path class="cls-4" d="M164.3,670.73c5.81.42,10.15,5.36,9.72,11-.43,5.67-5.47,9.89-11.25,9.49-5.81-.43-10.15-5.36-9.72-11,.43-5.67,5.47-9.89,11.25-9.49h0Z"/>
  <path class="cls-4" d="M161.83,703.57c5.78.42,10.12,5.33,9.69,11-.43,5.64-5.47,9.89-11.25,9.47-5.78-.43-10.15-5.33-9.72-11,.45-5.64,5.47-9.89,11.28-9.47h0Z"/>
  <path class="cls-4" d="M159.34,736.39c1.67.14,3.2.62,4.56,1.39l-13.04,1.87c2.1-2.21,5.16-3.49,8.47-3.26h0Z"/>
  <path class="cls-4" d="M242.44,222.8c.06.6.09,1.16.03,1.76-.43,5.67-5.47,9.89-11.25,9.49-5.81-.43-10.15-5.36-9.72-11,.06-.82.23-1.62.48-2.35l20.46,2.1Z"/>
  <path class="cls-4" d="M230.28,246.41c5.78.43,10.12,5.33,9.69,11-.43,5.64-5.47,9.89-11.25,9.47-5.78-.43-10.15-5.33-9.69-11,.43-5.64,5.44-9.89,11.25-9.47h0Z"/>
  <path class="cls-4" d="M227.78,279.22c5.78.43,10.15,5.36,9.69,11-.43,5.64-5.47,9.89-11.25,9.47-5.78-.4-10.12-5.33-9.69-10.97.43-5.67,5.47-9.89,11.25-9.49h0Z"/>
  <path class="cls-4" d="M225.29,312.07c5.78.4,10.15,5.33,9.72,10.97-.43,5.67-5.47,9.92-11.28,9.49-5.78-.43-10.12-5.36-9.69-11,.43-5.64,5.47-9.89,11.25-9.47h0Z"/>
  <path class="cls-4" d="M222.8,344.89c5.81.42,10.15,5.33,9.72,11-.43,5.64-5.47,9.89-11.25,9.47-5.81-.43-10.15-5.33-9.72-11,.43-5.64,5.47-9.89,11.25-9.47h0Z"/>
  <path class="cls-4" d="M220.33,377.73c5.78.4,10.12,5.33,9.69,10.97-.43,5.67-5.47,9.89-11.25,9.49-5.78-.43-10.15-5.36-9.69-11,.43-5.67,5.44-9.89,11.25-9.47h0Z"/>
  <path class="cls-4" d="M217.84,410.55c5.78.42,10.15,5.33,9.69,11-.43,5.64-5.47,9.89-11.25,9.47-5.78-.43-10.12-5.33-9.69-11,.43-5.64,5.47-9.89,11.25-9.47h0Z"/>
  <path class="cls-4" d="M215.34,443.36c5.78.42,10.15,5.36,9.72,11-.43,5.64-5.47,9.89-11.28,9.47-5.78-.4-10.12-5.33-9.69-10.97.43-5.67,5.47-9.89,11.25-9.49h0Z"/>
  <path class="cls-4" d="M212.85,476.21c5.81.4,10.15,5.33,9.72,10.97-.43,5.67-5.47,9.92-11.25,9.49-5.81-.43-10.15-5.36-9.72-11,.43-5.64,5.47-9.89,11.25-9.47h0Z"/>
  <path class="cls-4" d="M210.38,509.02c5.78.42,10.12,5.33,9.69,11-.43,5.64-5.47,9.89-11.25,9.47-5.78-.4-10.15-5.33-9.72-11,.45-5.64,5.47-9.89,11.28-9.47h0Z"/>
  <path class="cls-4" d="M207.89,541.87c5.78.4,10.15,5.33,9.69,10.97-.43,5.67-5.47,9.89-11.25,9.49-5.78-.42-10.12-5.36-9.69-11,.43-5.67,5.47-9.89,11.25-9.47h0Z"/>
  <path class="cls-4" d="M205.39,574.69c5.78.42,10.15,5.33,9.72,11-.43,5.64-5.47,9.89-11.28,9.47-5.78-.42-10.12-5.33-9.69-11,.43-5.64,5.47-9.89,11.25-9.47h0Z"/>
  <path class="cls-4" d="M202.9,607.5c5.81.42,10.15,5.36,9.72,11-.43,5.67-5.47,9.89-11.25,9.47-5.81-.4-10.15-5.33-9.72-10.97.43-5.67,5.47-9.89,11.25-9.49h0Z"/>
  <path class="cls-4" d="M200.43,640.35c5.78.43,10.12,5.33,9.69,11-.43,5.64-5.47,9.89-11.25,9.47-5.78-.42-10.15-5.33-9.72-11,.45-5.64,5.47-9.89,11.28-9.47h0Z"/>
  <path class="cls-4" d="M197.94,673.16c5.78.43,10.15,5.36,9.69,11-.43,5.64-5.47,9.89-11.25,9.47-5.78-.4-10.12-5.33-9.69-10.97.43-5.67,5.47-9.92,11.25-9.49h0Z"/>
  <path class="cls-4" d="M195.45,706.01c5.78.4,10.15,5.33,9.72,10.97-.43,5.67-5.47,9.89-11.28,9.49-5.78-.42-10.12-5.36-9.69-11,.43-5.64,5.47-9.89,11.25-9.47h0Z"/>
  <path class="cls-4" d="M276.11,226.29c0,.23,0,.48-.03.71-.43,5.64-5.44,9.89-11.25,9.47-5.78-.4-10.12-5.33-9.69-11,.03-.45.09-.88.2-1.33l20.77,2.15Z"/>
  <path class="cls-4" d="M263.89,248.84c5.81.4,10.15,5.33,9.72,10.97-.43,5.67-5.47,9.89-11.25,9.49-5.81-.43-10.15-5.36-9.72-11,.43-5.67,5.47-9.89,11.25-9.47h0Z"/>
  <path class="cls-4" d="M261.4,281.66c5.81.42,10.15,5.33,9.72,11-.43,5.64-5.47,9.89-11.25,9.47s-10.15-5.33-9.72-11c.43-5.64,5.47-9.89,11.25-9.47h0Z"/>
  <path class="cls-4" d="M258.93,314.48c5.78.43,10.12,5.36,9.69,11-.43,5.67-5.47,9.89-11.25,9.47-5.78-.4-10.15-5.33-9.69-10.97.43-5.67,5.44-9.89,11.25-9.49h0Z"/>
  <path class="cls-4" d="M256.44,347.32c5.78.42,10.15,5.33,9.69,11-.43,5.64-5.44,9.89-11.25,9.47-5.78-.43-10.12-5.33-9.69-11,.43-5.64,5.47-9.89,11.25-9.47h0Z"/>
  <path class="cls-4" d="M253.94,380.14c5.78.42,10.15,5.36,9.72,11-.43,5.64-5.47,9.89-11.25,9.47-5.81-.4-10.15-5.33-9.72-10.97.43-5.67,5.47-9.92,11.25-9.49h0Z"/>
  <path class="cls-4" d="M251.45,412.98c5.81.4,10.15,5.33,9.72,10.97-.43,5.67-5.47,9.89-11.25,9.49-5.78-.43-10.15-5.36-9.72-11,.43-5.64,5.47-9.89,11.25-9.47h0Z"/>
  <path class="cls-4" d="M248.98,445.8c5.78.42,10.12,5.33,9.69,11-.43,5.64-5.47,9.89-11.25,9.47-5.78-.43-10.15-5.33-9.69-11,.43-5.64,5.44-9.89,11.25-9.47h0Z"/>
  <path class="cls-4" d="M246.49,478.62c5.78.42,10.15,5.36,9.69,11-.43,5.67-5.44,9.89-11.25,9.49-5.78-.43-10.12-5.36-9.69-11,.43-5.67,5.47-9.89,11.25-9.49h0Z"/>
  <path class="cls-4" d="M244,511.46c5.78.42,10.15,5.33,9.72,11-.43,5.64-5.47,9.89-11.25,9.47-5.81-.43-10.15-5.33-9.72-11,.43-5.64,5.47-9.89,11.25-9.47h0Z"/>
  <path class="cls-4" d="M241.5,544.28c5.81.42,10.15,5.36,9.72,11-.43,5.64-5.47,9.89-11.25,9.47-5.78-.4-10.15-5.33-9.72-10.97.43-5.67,5.47-9.92,11.25-9.49h0Z"/>
  <path class="cls-4" d="M239.04,577.12c5.78.4,10.12,5.33,9.69,10.97-.43,5.67-5.47,9.89-11.25,9.49-5.78-.42-10.15-5.36-9.69-11,.43-5.64,5.44-9.89,11.25-9.47h0Z"/>
  <path class="cls-4" d="M236.54,609.94c5.78.42,10.15,5.33,9.69,11-.43,5.64-5.44,9.89-11.25,9.47-5.78-.42-10.12-5.33-9.69-11,.43-5.64,5.47-9.89,11.25-9.47h0Z"/>
  <path class="cls-4" d="M234.05,642.76c5.78.42,10.15,5.36,9.72,11-.43,5.67-5.47,9.89-11.25,9.49-5.81-.42-10.15-5.36-9.72-11,.43-5.67,5.47-9.89,11.25-9.49h0Z"/>
  <path class="cls-4" d="M231.55,675.6c5.81.43,10.15,5.33,9.72,11-.43,5.64-5.47,9.89-11.25,9.47-5.78-.42-10.15-5.33-9.72-11,.43-5.64,5.47-9.89,11.25-9.47h0Z"/>
  <path class="cls-4" d="M229.09,708.42c5.78.43,10.12,5.36,9.69,11-.28,3.85-2.72,7.06-6.07,8.56l-5.9.85c-5.44-.77-9.41-5.5-8.98-10.91.43-5.67,5.44-9.89,11.25-9.49h0Z"/>
  <path class="cls-4" d="M309.69,229.74c-.6,5.5-5.56,9.55-11.22,9.15-5.78-.43-10.15-5.33-9.72-11,.03-.11.03-.2.03-.31l20.92,2.15Z"/>
  <path class="cls-4" d="M297.53,251.25c5.78.42,10.12,5.36,9.69,11-.43,5.64-5.47,9.89-11.25,9.47-5.78-.4-10.12-5.33-9.69-10.97.43-5.67,5.47-9.92,11.25-9.49h0Z"/>
  <path class="cls-4" d="M295.04,284.1c5.78.4,10.15,5.33,9.72,10.97-.45,5.67-5.47,9.89-11.28,9.49-5.78-.42-10.12-5.36-9.69-11,.43-5.64,5.47-9.89,11.25-9.47h0Z"/>
  <path class="cls-4" d="M292.55,316.91c5.81.42,10.15,5.33,9.72,11-.43,5.64-5.47,9.89-11.25,9.47-5.81-.42-10.15-5.33-9.72-11,.43-5.64,5.47-9.89,11.25-9.47h0Z"/>
  <path class="cls-4" d="M290.08,349.73c5.78.42,10.12,5.36,9.69,11-.43,5.67-5.47,9.89-11.25,9.49-5.78-.42-10.15-5.36-9.72-11,.43-5.67,5.47-9.89,11.28-9.49h0Z"/>
  <path class="cls-4" d="M287.59,382.58c5.78.43,10.12,5.33,9.69,11-.43,5.64-5.47,9.89-11.25,9.47-5.78-.42-10.12-5.33-9.69-11,.43-5.64,5.47-9.89,11.25-9.47h0Z"/>
  <path class="cls-4" d="M285.09,415.39c5.78.43,10.15,5.36,9.72,11-.45,5.64-5.47,9.89-11.28,9.47-5.78-.4-10.12-5.33-9.69-10.97.43-5.67,5.47-9.92,11.25-9.49h0Z"/>
  <path class="cls-4" d="M282.6,448.24c5.81.4,10.15,5.33,9.72,10.97-.43,5.67-5.47,9.92-11.25,9.49-5.81-.42-10.15-5.36-9.72-11,.43-5.64,5.47-9.89,11.25-9.47h0Z"/>
  <path class="cls-4" d="M280.13,481.05c5.78.43,10.12,5.33,9.69,11-.43,5.64-5.47,9.89-11.25,9.47-5.78-.42-10.15-5.33-9.72-11,.43-5.64,5.47-9.89,11.28-9.47h0Z"/>
  <path class="cls-4" d="M277.64,513.87c5.78.43,10.12,5.36,9.69,11-.43,5.67-5.47,9.89-11.25,9.49-5.78-.43-10.12-5.36-9.69-11,.43-5.67,5.47-9.89,11.25-9.49h0Z"/>
  <path class="cls-4" d="M275.14,546.71c5.78.43,10.15,5.33,9.72,11-.45,5.64-5.47,9.89-11.28,9.47-5.78-.43-10.12-5.33-9.69-11,.43-5.64,5.47-9.89,11.25-9.47h0Z"/>
  <path class="cls-4" d="M272.65,579.53c5.81.43,10.15,5.36,9.72,11-.43,5.64-5.47,9.89-11.25,9.47-5.81-.4-10.15-5.33-9.72-10.97.43-5.67,5.47-9.89,11.25-9.49h0Z"/>
  <path class="cls-4" d="M270.18,612.38c5.78.4,10.12,5.33,9.69,10.97-.43,5.67-5.47,9.92-11.25,9.49-5.78-.43-10.15-5.36-9.72-11,.43-5.64,5.47-9.89,11.28-9.47h0Z"/>
  <path class="cls-4" d="M267.69,645.19c5.78.43,10.12,5.33,9.69,11-.43,5.64-5.47,9.89-11.25,9.47-5.78-.43-10.15-5.33-9.69-11,.43-5.64,5.47-9.89,11.25-9.47h0Z"/>
  <path class="cls-4" d="M265.2,678.04c5.78.4,10.15,5.33,9.72,10.97-.45,5.67-5.47,9.89-11.28,9.49-5.78-.43-10.12-5.36-9.69-11,.43-5.67,5.47-9.89,11.25-9.47h0Z"/>
  <path class="cls-4" d="M262.7,710.85c5.81.43,10.15,5.33,9.72,11-.03.14-.03.31-.06.45l-20.07,2.86c-.65-1.47-.99-3.12-.85-4.85.43-5.64,5.47-9.89,11.25-9.47h0Z"/>
  <path class="cls-4" d="M343.16,233.2c-1.08,4.96-5.75,8.5-11.08,8.13-5.53-.42-9.75-4.93-9.72-10.29l20.8,2.15Z"/>
  <path class="cls-4" d="M331.15,253.69c5.81.42,10.15,5.33,9.72,11-.43,5.64-5.47,9.89-11.25,9.47-5.81-.42-10.15-5.33-9.72-11,.43-5.64,5.47-9.89,11.25-9.47h0Z"/>
  <path class="cls-4" d="M328.68,286.51c5.78.42,10.12,5.36,9.69,11-.43,5.64-5.47,9.89-11.25,9.47-5.78-.4-10.15-5.33-9.72-10.97.45-5.67,5.47-9.89,11.28-9.49h0Z"/>
  <path class="cls-4" d="M326.19,319.35c5.78.4,10.12,5.33,9.69,10.97-.43,5.67-5.47,9.92-11.25,9.49-5.78-.42-10.12-5.36-9.69-11,.43-5.64,5.47-9.89,11.25-9.47h0Z"/>
  <path class="cls-4" d="M323.69,352.17c5.78.42,10.15,5.33,9.72,11-.45,5.64-5.47,9.89-11.28,9.47-5.78-.42-10.12-5.33-9.69-11,.43-5.64,5.47-9.89,11.25-9.47h0Z"/>
  <path class="cls-4" d="M321.2,385.01c5.81.4,10.15,5.33,9.72,10.97-.43,5.67-5.47,9.89-11.25,9.49-5.81-.42-10.15-5.36-9.72-11,.43-5.67,5.47-9.89,11.25-9.47h0Z"/>
  <path class="cls-4" d="M318.73,417.83c5.78.43,10.12,5.33,9.69,11-.43,5.64-5.47,9.89-11.25,9.47-5.78-.42-10.15-5.33-9.72-11,.45-5.64,5.47-9.89,11.28-9.47h0Z"/>
  <path class="cls-4" d="M316.24,450.65c5.78.43,10.12,5.36,9.69,11-.43,5.67-5.47,9.89-11.25,9.47-5.78-.4-10.12-5.33-9.69-10.97.43-5.67,5.47-9.89,11.25-9.49h0Z"/>
  <path class="cls-4" d="M313.74,483.49c5.78.4,10.15,5.33,9.72,10.97-.45,5.67-5.47,9.92-11.28,9.49-5.78-.42-10.12-5.36-9.69-11,.43-5.64,5.47-9.89,11.25-9.47h0Z"/>
  <path class="cls-4" d="M311.25,516.31c5.81.43,10.15,5.33,9.72,11-.43,5.64-5.47,9.89-11.25,9.47-5.81-.4-10.15-5.33-9.72-10.97.43-5.67,5.47-9.92,11.25-9.49h0Z"/>
  <path class="cls-4" d="M308.79,549.15c5.78.4,10.12,5.33,9.69,10.97-.43,5.67-5.47,9.89-11.25,9.49-5.78-.42-10.15-5.36-9.72-11,.45-5.64,5.47-9.89,11.28-9.47h0Z"/>
  <path class="cls-4" d="M306.29,581.97c5.78.43,10.12,5.33,9.69,11-.43,5.64-5.47,9.89-11.25,9.47-5.78-.42-10.12-5.33-9.69-11,.43-5.64,5.47-9.89,11.25-9.47h0Z"/>
  <path class="cls-4" d="M303.8,614.78c5.78.43,10.15,5.36,9.72,11-.45,5.67-5.47,9.89-11.28,9.47-5.78-.4-10.12-5.33-9.69-10.97.43-5.67,5.47-9.89,11.25-9.49h0Z"/>
  <path class="cls-4" d="M301.3,647.63c5.81.42,10.15,5.33,9.72,11-.43,5.64-5.47,9.89-11.25,9.47-5.81-.43-10.15-5.33-9.72-11,.43-5.64,5.47-9.89,11.25-9.47h0Z"/>
  <path class="cls-4" d="M298.84,680.45c5.78.43,10.12,5.36,9.69,11-.43,5.64-5.47,9.89-11.25,9.47-5.78-.4-10.15-5.33-9.72-10.97.45-5.67,5.47-9.92,11.28-9.49h0Z"/>
  <path class="cls-4" d="M296.34,713.29c3.34.23,6.18,1.96,7.94,4.48l-18.73,2.66c1.42-4.45,5.84-7.51,10.8-7.14h0Z"/>
  <path class="cls-4" d="M376.52,236.63c-1.45,4.42-5.84,7.48-10.8,7.11-5.19-.37-9.21-4.34-9.69-9.21l20.49,2.1Z"/>
  <path class="cls-4" d="M364.79,256.13c5.78.4,10.15,5.33,9.69,10.97-.43,5.67-5.47,9.89-11.25,9.49-5.78-.42-10.12-5.36-9.69-11,.43-5.67,5.47-9.89,11.25-9.47h0Z"/>
  <path class="cls-4" d="M362.29,288.94c5.78.43,10.15,5.33,9.72,11-.43,5.64-5.47,9.89-11.28,9.47-5.78-.42-10.12-5.33-9.69-11,.43-5.64,5.47-9.89,11.25-9.47h0Z"/>
  <path class="cls-4" d="M359.8,321.76c5.81.43,10.15,5.36,9.72,11-.43,5.67-5.47,9.89-11.25,9.47-5.81-.4-10.15-5.33-9.72-10.97.43-5.67,5.47-9.89,11.25-9.49h0Z"/>
  <path class="cls-4" d="M357.33,354.61c5.78.43,10.12,5.33,9.69,11-.43,5.64-5.47,9.89-11.25,9.47-5.78-.43-10.15-5.33-9.72-11,.45-5.64,5.47-9.89,11.28-9.47h0Z"/>
  <path class="cls-4" d="M354.84,387.42c5.78.43,10.15,5.36,9.69,11-.43,5.64-5.47,9.89-11.25,9.47-5.78-.4-10.12-5.33-9.69-10.97.43-5.67,5.47-9.92,11.25-9.49h0Z"/>
  <path class="cls-4" d="M352.35,420.27c5.78.4,10.15,5.33,9.72,10.97-.43,5.67-5.47,9.89-11.28,9.49-5.78-.43-10.12-5.36-9.69-11,.43-5.64,5.47-9.89,11.25-9.47h0Z"/>
  <path class="cls-4" d="M349.85,453.08c5.81.43,10.15,5.33,9.72,11-.43,5.64-5.47,9.89-11.25,9.47-5.81-.43-10.15-5.33-9.72-11,.43-5.64,5.47-9.89,11.25-9.47h0Z"/>
  <path class="cls-4" d="M347.39,485.9c5.78.43,10.12,5.36,9.69,11-.43,5.67-5.47,9.89-11.25,9.49-5.78-.43-10.15-5.36-9.72-11,.45-5.67,5.47-9.89,11.28-9.49h0Z"/>
  <path class="cls-4" d="M344.89,518.74c5.78.43,10.12,5.33,9.69,11-.43,5.64-5.47,9.89-11.25,9.47-5.78-.43-10.12-5.33-9.69-11,.43-5.64,5.47-9.89,11.25-9.47h0Z"/>
  <path class="cls-4" d="M342.4,551.56c5.78.43,10.15,5.36,9.72,11-.43,5.64-5.47,9.89-11.28,9.47-5.78-.4-10.12-5.33-9.69-10.97.43-5.67,5.47-9.92,11.25-9.49h0Z"/>
  <path class="cls-4" d="M339.9,584.41c5.81.4,10.15,5.33,9.72,10.97-.43,5.67-5.47,9.92-11.25,9.49-5.81-.43-10.15-5.36-9.72-11,.43-5.64,5.47-9.89,11.25-9.47h0Z"/>
  <path class="cls-4" d="M337.44,617.22c5.78.43,10.12,5.33,9.69,11-.43,5.64-5.47,9.89-11.25,9.47-5.78-.43-10.15-5.33-9.72-11,.45-5.64,5.47-9.89,11.28-9.47h0Z"/>
  <path class="cls-4" d="M334.94,650.04c5.78.43,10.12,5.36,9.69,11-.43,5.67-5.47,9.89-11.25,9.49-5.78-.43-10.12-5.36-9.69-11,.43-5.67,5.47-9.89,11.25-9.49h0Z"/>
  <path class="cls-4" d="M332.45,682.88c5.78.43,10.15,5.33,9.72,11-.43,5.64-5.47,9.89-11.28,9.47-5.78-.43-10.12-5.33-9.69-11,.43-5.64,5.47-9.89,11.25-9.47h0Z"/>
  <path class="cls-4" d="M409.77,240.06c-1.76,3.88-5.84,6.46-10.4,6.12-4.82-.34-8.62-3.8-9.52-8.16l19.92,2.04Z"/>
  <path class="cls-4" d="M398.4,258.54c5.81.43,10.15,5.36,9.72,11-.43,5.64-5.47,9.89-11.25,9.47-5.78-.4-10.15-5.33-9.72-10.97.43-5.67,5.47-9.92,11.25-9.49h0Z"/>
  <path class="cls-4" d="M395.94,291.38c5.78.4,10.12,5.33,9.69,10.97-.43,5.67-5.47,9.89-11.25,9.49-5.78-.43-10.15-5.36-9.69-11,.43-5.64,5.44-9.89,11.25-9.47h0Z"/>
  <path class="cls-4" d="M393.44,324.2c5.78.43,10.15,5.33,9.69,11-.43,5.64-5.44,9.89-11.25,9.47-5.78-.42-10.12-5.33-9.69-11,.43-5.64,5.47-9.89,11.25-9.47h0Z"/>
  <path class="cls-4" d="M390.95,357.01c5.78.43,10.15,5.36,9.72,11-.43,5.67-5.47,9.89-11.25,9.49-5.81-.43-10.15-5.36-9.72-11,.43-5.67,5.47-9.89,11.25-9.49h0Z"/>
  <path class="cls-4" d="M388.45,389.86c5.81.42,10.15,5.33,9.72,11-.43,5.64-5.47,9.89-11.25,9.47-5.78-.43-10.15-5.33-9.72-11,.43-5.64,5.47-9.89,11.25-9.47h0Z"/>
  <path class="cls-4" d="M385.99,422.68c5.78.42,10.12,5.36,9.69,11-.43,5.64-5.47,9.89-11.25,9.47-5.78-.4-10.15-5.33-9.69-10.97.43-5.67,5.44-9.89,11.25-9.49h0Z"/>
  <path class="cls-4" d="M383.49,455.52c5.78.4,10.15,5.33,9.69,10.97-.43,5.67-5.44,9.92-11.25,9.49-5.78-.43-10.12-5.36-9.69-11,.43-5.64,5.47-9.89,11.25-9.47h0Z"/>
  <path class="cls-4" d="M381,488.34c5.78.42,10.15,5.33,9.72,11-.43,5.64-5.47,9.89-11.25,9.47-5.81-.43-10.15-5.33-9.72-11,.43-5.64,5.47-9.89,11.25-9.47h0Z"/>
  <path class="cls-4" d="M378.51,521.15c5.81.42,10.15,5.36,9.72,11-.43,5.67-5.47,9.89-11.25,9.49-5.78-.43-10.15-5.36-9.72-11,.43-5.67,5.47-9.89,11.25-9.49h0Z"/>
  <path class="cls-4" d="M376.04,554c5.78.42,10.12,5.33,9.69,11-.43,5.64-5.47,9.89-11.25,9.47-5.78-.43-10.15-5.33-9.69-11,.43-5.64,5.44-9.89,11.25-9.47h0Z"/>
  <path class="cls-4" d="M373.55,586.81c5.78.42,10.15,5.36,9.69,11-.43,5.64-5.44,9.89-11.25,9.47-5.78-.4-10.12-5.33-9.69-10.97.43-5.67,5.47-9.89,11.25-9.49h0Z"/>
  <path class="cls-4" d="M371.05,619.66c5.78.4,10.15,5.33,9.72,10.97-.43,5.67-5.47,9.92-11.25,9.49-5.81-.42-10.15-5.36-9.72-11,.43-5.64,5.47-9.89,11.25-9.47h0Z"/>
  <path class="cls-4" d="M368.56,652.48c5.81.42,10.15,5.33,9.72,11-.43,5.64-5.47,9.89-11.25,9.47-5.78-.42-10.15-5.33-9.72-11,.43-5.64,5.47-9.89,11.25-9.47h0Z"/>
  <path class="cls-4" d="M366.09,685.32c5.78.4,10.12,5.33,9.69,10.97-.43,5.67-5.47,9.89-11.25,9.49-5.78-.42-10.15-5.36-9.69-11,.43-5.67,5.44-9.89,11.25-9.47h0Z"/>
  <path class="cls-4" d="M442.87,243.46c-1.93,3.34-5.73,5.44-9.89,5.16-4.39-.34-7.96-3.26-9.24-7.11l19.13,1.96Z"/>
  <path class="cls-4" d="M432.04,260.97c5.78.43,10.15,5.33,9.72,11-.45,5.64-5.47,9.89-11.28,9.47-5.78-.43-10.12-5.33-9.69-11,.43-5.64,5.47-9.89,11.25-9.47h0Z"/>
  <path class="cls-4" d="M429.55,293.79c5.81.43,10.15,5.36,9.72,11-.43,5.64-5.47,9.89-11.25,9.47-5.81-.4-10.15-5.33-9.72-10.97.43-5.67,5.47-9.89,11.25-9.49h0Z"/>
  <path class="cls-4" d="M427.08,326.63c5.78.4,10.12,5.33,9.69,10.97-.43,5.67-5.47,9.92-11.25,9.49s-10.15-5.36-9.72-11c.43-5.64,5.47-9.89,11.28-9.47h0Z"/>
  <path class="cls-4" d="M424.59,359.45c5.78.43,10.12,5.33,9.69,11-.43,5.64-5.47,9.89-11.25,9.47-5.78-.43-10.12-5.33-9.69-11,.43-5.64,5.47-9.89,11.25-9.47h0Z"/>
  <path class="cls-4" d="M422.1,392.3c5.78.4,10.15,5.33,9.72,10.97-.45,5.67-5.47,9.89-11.28,9.49-5.78-.43-10.12-5.36-9.69-11,.43-5.67,5.47-9.89,11.25-9.47h0Z"/>
  <path class="cls-4" d="M419.6,425.11c5.81.43,10.15,5.33,9.72,11-.43,5.64-5.47,9.89-11.25,9.47-5.81-.43-10.15-5.33-9.72-11,.43-5.64,5.47-9.89,11.25-9.47h0Z"/>
  <path class="cls-4" d="M417.14,457.93c5.78.43,10.12,5.36,9.69,11-.43,5.67-5.47,9.89-11.25,9.47-5.78-.4-10.15-5.33-9.72-10.97.43-5.67,5.47-9.89,11.28-9.49h0Z"/>
  <path class="cls-4" d="M414.64,490.77c5.78.4,10.12,5.33,9.69,11-.43,5.64-5.47,9.89-11.25,9.47-5.78-.43-10.15-5.33-9.69-11,.43-5.64,5.47-9.89,11.25-9.47h0Z"/>
  <path class="cls-4" d="M412.15,523.59c5.78.42,10.15,5.36,9.72,11-.45,5.64-5.47,9.89-11.28,9.47-5.78-.4-10.12-5.33-9.69-10.97.43-5.67,5.47-9.92,11.25-9.49h0Z"/>
  <path class="cls-4" d="M409.65,556.44c5.81.4,10.15,5.33,9.72,10.97-.43,5.67-5.47,9.89-11.25,9.49-5.81-.43-10.15-5.36-9.72-11,.43-5.64,5.47-9.89,11.25-9.47h0Z"/>
  <path class="cls-4" d="M407.19,589.25c5.78.42,10.12,5.33,9.69,11-.43,5.64-5.47,9.89-11.25,9.47-5.78-.43-10.15-5.33-9.72-11,.43-5.64,5.47-9.89,11.28-9.47h0Z"/>
  <path class="cls-4" d="M404.69,622.07c5.78.42,10.12,5.36,9.69,11-.43,5.67-5.47,9.89-11.25,9.47-5.78-.4-10.15-5.33-9.69-10.97.43-5.67,5.47-9.89,11.25-9.49h0Z"/>
  <path class="cls-4" d="M402.2,654.91c5.78.42,10.15,5.33,9.72,11-.45,5.64-5.47,9.89-11.28,9.47-5.78-.43-10.12-5.33-9.69-11,.43-5.64,5.47-9.89,11.25-9.47h0Z"/>
  <path class="cls-4" d="M399.71,687.73c5.81.42,10.15,5.36,9.72,11-.11,1.53-.57,2.98-1.3,4.22l-16.52,2.35c-2.15-2.04-3.37-4.96-3.15-8.08.43-5.67,5.47-9.92,11.25-9.49h0Z"/>
  <path class="cls-4" d="M475.86,246.86c-2.07,2.78-5.5,4.45-9.24,4.17-4-.28-7.28-2.69-8.81-6.01l18.05,1.84Z"/>
  <path class="cls-4" d="M465.69,263.41c5.78.4,10.12,5.33,9.69,10.97-.43,5.67-5.47,9.89-11.25,9.49-5.78-.43-10.15-5.36-9.72-11,.45-5.64,5.47-9.89,11.28-9.47h0Z"/>
  <path class="cls-4" d="M463.19,296.23c5.78.42,10.12,5.33,9.69,11-.43,5.64-5.47,9.89-11.25,9.47-5.78-.43-10.12-5.33-9.69-11,.43-5.64,5.47-9.89,11.25-9.47h0Z"/>
  <path class="cls-4" d="M460.7,329.04c5.78.42,10.15,5.36,9.72,11-.45,5.67-5.47,9.89-11.28,9.47-5.78-.4-10.12-5.33-9.69-10.97.43-5.67,5.47-9.89,11.25-9.49h0Z"/>
  <path class="cls-4" d="M458.2,361.89c5.81.42,10.15,5.33,9.72,11-.43,5.64-5.47,9.89-11.25,9.47-5.81-.42-10.15-5.33-9.72-11,.43-5.64,5.47-9.89,11.25-9.47h0Z"/>
  <path class="cls-4" d="M455.74,394.7c5.78.42,10.12,5.36,9.69,11-.43,5.64-5.47,9.89-11.25,9.47-5.78-.4-10.15-5.33-9.72-10.97.45-5.67,5.47-9.92,11.28-9.49h0Z"/>
  <path class="cls-4" d="M453.24,427.55c5.78.4,10.12,5.33,9.69,10.97-.43,5.67-5.47,9.89-11.25,9.49-5.78-.42-10.12-5.36-9.69-11,.43-5.64,5.47-9.89,11.25-9.47h0Z"/>
  <path class="cls-4" d="M450.75,460.37c5.78.43,10.15,5.33,9.72,11-.45,5.64-5.47,9.89-11.28,9.47-5.78-.42-10.12-5.33-9.69-11,.43-5.64,5.47-9.89,11.25-9.47h0Z"/>
  <path class="cls-4" d="M448.26,493.18c5.81.43,10.15,5.36,9.72,11-.43,5.67-5.47,9.89-11.25,9.49-5.81-.42-10.15-5.36-9.72-11,.43-5.67,5.47-9.89,11.25-9.49h0Z"/>
  <path class="cls-4" d="M445.79,526.03c5.78.43,10.12,5.33,9.69,11-.43,5.64-5.47,9.89-11.25,9.47-5.78-.42-10.15-5.33-9.72-11,.45-5.64,5.47-9.89,11.28-9.47h0Z"/>
  <path class="cls-4" d="M443.3,558.84c5.78.43,10.12,5.36,9.69,11-.43,5.64-5.47,9.89-11.25,9.47-5.78-.4-10.12-5.33-9.69-10.97.43-5.67,5.47-9.92,11.25-9.49h0Z"/>
  <path class="cls-4" d="M440.8,591.69c5.78.4,10.15,5.33,9.72,10.97-.45,5.67-5.47,9.92-11.28,9.49-5.78-.42-10.12-5.36-9.69-11,.43-5.64,5.47-9.89,11.25-9.47h0Z"/>
  <path class="cls-4" d="M438.31,624.51c5.81.43,10.15,5.33,9.72,11-.43,5.64-5.47,9.89-11.25,9.47-5.81-.42-10.15-5.33-9.72-11,.43-5.64,5.47-9.89,11.25-9.47h0Z"/>
  <path class="cls-4" d="M435.84,657.32c5.78.43,10.12,5.36,9.69,11-.43,5.67-5.47,9.89-11.25,9.49-5.78-.43-10.15-5.36-9.72-11,.43-5.67,5.47-9.89,11.28-9.49h0Z"/>
  <path class="cls-4" d="M433.35,690.17c4.68.34,8.42,3.6,9.44,7.85l-20.72,2.95c-.03-.43-.03-.88.03-1.33.43-5.64,5.47-9.89,11.25-9.47h0Z"/>
  <path class="cls-4" d="M508.68,250.26c-2.1,2.18-5.16,3.43-8.45,3.2-3.51-.26-6.52-2.18-8.22-4.93l16.67,1.73Z"/>
  <path class="cls-4" d="M499.3,265.82c5.78.42,10.15,5.36,9.72,11-.43,5.64-5.47,9.89-11.28,9.47-5.78-.4-10.12-5.33-9.69-10.97.43-5.67,5.47-9.92,11.25-9.49h0Z"/>
  <path class="cls-4" d="M496.81,298.66c5.81.4,10.15,5.33,9.72,10.97-.43,5.67-5.47,9.92-11.25,9.49-5.81-.43-10.15-5.36-9.72-11,.43-5.64,5.47-9.89,11.25-9.47h0Z"/>
  <path class="cls-4" d="M494.34,331.48c5.78.42,10.12,5.33,9.69,11-.43,5.64-5.47,9.89-11.25,9.47-5.78-.43-10.15-5.33-9.72-11,.45-5.64,5.47-9.89,11.28-9.47h0Z"/>
  <path class="cls-4" d="M491.85,364.3c5.78.42,10.15,5.36,9.69,11-.43,5.67-5.47,9.89-11.25,9.49-5.78-.43-10.12-5.36-9.69-11,.43-5.67,5.47-9.89,11.25-9.49h0Z"/>
  <path class="cls-4" d="M489.35,397.14c5.78.42,10.15,5.33,9.72,11-.43,5.64-5.47,9.89-11.28,9.47-5.78-.43-10.12-5.33-9.69-11,.43-5.64,5.47-9.89,11.25-9.47h0Z"/>
  <path class="cls-4" d="M486.86,429.96c5.81.42,10.15,5.36,9.72,11-.43,5.64-5.47,9.89-11.25,9.47-5.81-.4-10.15-5.33-9.72-10.97.43-5.67,5.47-9.89,11.25-9.49h0Z"/>
  <path class="cls-4" d="M484.39,462.8c5.78.4,10.12,5.33,9.69,10.97-.43,5.67-5.47,9.92-11.25,9.49-5.78-.42-10.15-5.36-9.72-11,.45-5.64,5.47-9.89,11.28-9.47h0Z"/>
  <path class="cls-4" d="M481.9,495.62c5.78.42,10.12,5.33,9.69,11-.43,5.64-5.47,9.89-11.25,9.47-5.78-.42-10.12-5.33-9.69-11,.43-5.64,5.47-9.89,11.25-9.47h0Z"/>
  <path class="cls-4" d="M479.4,528.46c5.78.4,10.15,5.33,9.72,10.97-.43,5.67-5.47,9.89-11.28,9.49-5.78-.42-10.12-5.36-9.69-11,.43-5.67,5.47-9.89,11.25-9.47h0Z"/>
  <path class="cls-4" d="M476.91,561.28c5.81.43,10.15,5.33,9.72,11-.43,5.64-5.47,9.89-11.25,9.47-5.81-.42-10.15-5.33-9.72-11,.43-5.64,5.47-9.89,11.25-9.47h0Z"/>
  <path class="cls-4" d="M474.44,594.1c5.78.43,10.12,5.36,9.69,11-.43,5.64-5.47,9.89-11.25,9.47-5.78-.4-10.15-5.33-9.72-10.97.45-5.67,5.47-9.89,11.28-9.49h0Z"/>
  <path class="cls-4" d="M471.95,626.94c5.78.4,10.12,5.33,9.69,10.97-.43,5.67-5.47,9.92-11.25,9.49-5.78-.42-10.12-5.36-9.69-11,.43-5.64,5.47-9.89,11.25-9.47h0Z"/>
  <path class="cls-4" d="M469.46,659.76c5.78.43,10.15,5.33,9.72,11-.43,5.64-5.47,9.89-11.28,9.47-5.78-.42-10.12-5.33-9.69-11,.43-5.64,5.47-9.89,11.25-9.47h0Z"/>
  <path class="cls-4" d="M466.96,692.6c1.64.11,3.15.57,4.48,1.3l-12.87,1.84c2.1-2.15,5.13-3.4,8.39-3.15h0Z"/>
  <path class="cls-4" d="M541.27,253.61c-2.01,1.62-4.62,2.49-7.4,2.3-3.03-.23-5.67-1.67-7.43-3.83l14.82,1.53Z"/>
  <path class="cls-4" d="M532.94,268.26c5.78.43,10.12,5.33,9.69,11-.43,5.64-5.47,9.89-11.25,9.47-5.78-.42-10.15-5.33-9.69-11,.43-5.64,5.44-9.89,11.25-9.47h0Z"/>
  <path class="cls-4" d="M530.45,301.07c5.78.43,10.15,5.36,9.69,11-.43,5.64-5.44,9.89-11.25,9.47-5.78-.4-10.12-5.33-9.69-10.97.43-5.67,5.47-9.89,11.25-9.49h0Z"/>
  <path class="cls-4" d="M527.95,333.92c5.78.4,10.15,5.33,9.72,10.97-.43,5.67-5.47,9.92-11.25,9.49-5.81-.42-10.15-5.36-9.72-11,.43-5.64,5.47-9.89,11.25-9.47h0Z"/>
  <path class="cls-4" d="M525.46,366.73c5.81.43,10.15,5.33,9.72,11-.43,5.64-5.47,9.89-11.25,9.47-5.78-.4-10.15-5.33-9.72-11,.43-5.64,5.47-9.89,11.25-9.47h0Z"/>
  <path class="cls-4" d="M522.99,399.58c5.78.4,10.12,5.33,9.69,10.97-.43,5.67-5.47,9.89-11.25,9.49-5.78-.43-10.15-5.36-9.69-11,.43-5.67,5.44-9.89,11.25-9.47h0Z"/>
  <path class="cls-4" d="M520.5,432.4c5.78.43,10.15,5.33,9.69,11-.43,5.64-5.44,9.89-11.25,9.47-5.78-.43-10.12-5.33-9.69-11,.43-5.64,5.47-9.89,11.25-9.47h0Z"/>
  <path class="cls-4" d="M518.01,465.21c5.78.43,10.15,5.36,9.72,11-.43,5.67-5.47,9.89-11.25,9.47-5.81-.4-10.15-5.33-9.72-10.97.43-5.67,5.47-9.89,11.25-9.49h0Z"/>
  <path class="cls-4" d="M515.51,498.06c5.81.43,10.15,5.33,9.72,11-.43,5.64-5.47,9.89-11.25,9.47-5.78-.43-10.15-5.33-9.72-11,.43-5.64,5.47-9.89,11.25-9.47h0Z"/>
  <path class="cls-4" d="M513.05,530.87c5.78.43,10.12,5.36,9.69,11-.43,5.64-5.47,9.89-11.25,9.47-5.78-.4-10.15-5.33-9.69-10.97.43-5.67,5.44-9.92,11.25-9.49h0Z"/>
  <path class="cls-4" d="M510.55,563.72c5.78.4,10.15,5.33,9.69,10.97-.43,5.67-5.44,9.89-11.25,9.49-5.78-.43-10.12-5.36-9.69-11,.43-5.64,5.47-9.89,11.25-9.47h0Z"/>
  <path class="cls-4" d="M508.06,596.53c5.78.43,10.15,5.33,9.72,11-.43,5.64-5.47,9.89-11.25,9.47-5.81-.43-10.15-5.33-9.72-11,.43-5.64,5.47-9.89,11.25-9.47h0Z"/>
  <path class="cls-4" d="M505.56,629.35c5.81.43,10.15,5.36,9.72,11-.43,5.67-5.47,9.89-11.25,9.49-5.81-.43-10.15-5.36-9.72-11,.43-5.67,5.47-9.89,11.25-9.49h0Z"/>
  <path class="cls-4" d="M503.1,662.2c5.78.43,10.12,5.33,9.69,11-.43,5.64-5.47,9.89-11.25,9.47-5.78-.43-10.15-5.33-9.69-11,.43-5.64,5.44-9.89,11.25-9.47h0Z"/>
  <path class="cls-4" d="M573.58,256.95c-1.79,1.02-3.88,1.53-6.09,1.36-2.44-.17-4.62-1.13-6.29-2.64l12.39,1.28Z"/>
  <path class="cls-4" d="M566.55,270.69c5.81.4,10.15,5.33,9.72,10.97-.43,5.67-5.47,9.89-11.25,9.49-5.81-.42-10.15-5.36-9.72-11,.43-5.64,5.47-9.89,11.25-9.47h0Z"/>
  <path class="cls-4" d="M564.09,303.51c5.78.43,10.12,5.33,9.69,11-.43,5.64-5.47,9.89-11.25,9.47-5.78-.42-10.15-5.33-9.72-11,.43-5.64,5.47-9.89,11.28-9.47h0Z"/>
  <path class="cls-4" d="M561.6,336.33c5.78.43,10.12,5.36,9.69,11-.43,5.67-5.47,9.89-11.25,9.49-5.78-.42-10.15-5.36-9.69-11,.43-5.67,5.47-9.89,11.25-9.49h0Z"/>
  <path class="cls-4" d="M559.1,369.17c5.78.43,10.15,5.33,9.72,11-.45,5.64-5.47,9.89-11.28,9.47-5.78-.42-10.12-5.33-9.69-11,.43-5.64,5.47-9.89,11.25-9.47h0Z"/>
  <path class="cls-4" d="M556.61,401.99c5.81.43,10.15,5.36,9.72,11-.43,5.64-5.47,9.89-11.25,9.47-5.81-.4-10.15-5.33-9.72-10.97.43-5.67,5.47-9.92,11.25-9.49h0Z"/>
  <path class="cls-4" d="M554.14,434.83c5.78.4,10.12,5.33,9.69,10.97-.43,5.67-5.47,9.89-11.25,9.49-5.78-.43-10.15-5.36-9.72-11,.43-5.64,5.47-9.89,11.28-9.47h0Z"/>
  <path class="cls-4" d="M551.65,467.65c5.78.43,10.12,5.33,9.69,11-.43,5.64-5.47,9.89-11.25,9.47-5.78-.43-10.15-5.33-9.69-11,.43-5.64,5.47-9.89,11.25-9.47h0Z"/>
  <path class="cls-4" d="M549.15,500.47c5.78.43,10.15,5.36,9.72,11-.45,5.67-5.47,9.89-11.28,9.49-5.78-.43-10.12-5.36-9.69-11,.43-5.67,5.47-9.89,11.25-9.49h0Z"/>
  <path class="cls-4" d="M546.66,533.31c5.81.42,10.15,5.33,9.72,11-.43,5.64-5.47,9.89-11.25,9.47-5.81-.43-10.15-5.33-9.72-11,.43-5.64,5.47-9.89,11.25-9.47h0Z"/>
  <path class="cls-4" d="M544.19,566.13c5.78.42,10.12,5.36,9.69,11-.43,5.64-5.47,9.89-11.25,9.47-5.78-.4-10.15-5.33-9.72-10.97.43-5.67,5.47-9.92,11.28-9.49h0Z"/>
  <path class="cls-4" d="M541.7,598.97c5.78.4,10.12,5.33,9.69,10.97-.43,5.67-5.47,9.92-11.25,9.49-5.78-.43-10.15-5.36-9.69-11,.43-5.64,5.47-9.89,11.25-9.47h0Z"/>
  <path class="cls-4" d="M539.2,631.79c5.78.42,10.15,5.33,9.69,11-.43,5.64-5.44,9.89-11.25,9.47-5.78-.43-10.12-5.33-9.69-11,.43-5.64,5.47-9.89,11.25-9.47h0Z"/>
  <path class="cls-4" d="M536.71,664.6c5.81.42,10.15,5.36,9.72,11-.28,3.77-2.61,6.89-5.84,8.45l-6.41.94c-5.3-.88-9.13-5.55-8.73-10.88.43-5.67,5.47-9.89,11.25-9.49h0Z"/>
  <path class="cls-4" d="M605.33,260.21c-1.3.45-2.72.65-4.19.54-1.7-.11-3.29-.62-4.65-1.45l8.84.91Z"/>
  <path class="cls-4" d="M600.2,273.1c5.78.43,10.12,5.36,9.69,11-.43,5.64-5.47,9.89-11.25,9.47-5.78-.4-10.12-5.33-9.69-10.97.43-5.67,5.47-9.92,11.25-9.49h0Z"/>
  <path class="cls-4" d="M597.7,305.95c5.78.4,10.15,5.33,9.72,10.97-.45,5.67-5.47,9.92-11.28,9.49-5.78-.43-10.12-5.36-9.69-11,.43-5.64,5.47-9.89,11.25-9.47h0Z"/>
  <path class="cls-4" d="M595.21,338.76c5.81.43,10.15,5.33,9.72,11-.43,5.64-5.47,9.89-11.25,9.47-5.81-.43-10.15-5.33-9.72-11,.43-5.64,5.47-9.89,11.25-9.47h0Z"/>
  <path class="cls-4" d="M592.74,371.58c5.78.43,10.12,5.36,9.69,11-.43,5.67-5.47,9.89-11.25,9.49-5.78-.43-10.15-5.36-9.72-11,.45-5.67,5.47-9.89,11.28-9.49h0Z"/>
  <path class="cls-4" d="M590.25,404.42c5.78.43,10.12,5.33,9.69,11-.43,5.64-5.47,9.89-11.25,9.47-5.78-.43-10.12-5.33-9.69-11,.43-5.64,5.47-9.89,11.25-9.47h0Z"/>
  <path class="cls-4" d="M587.75,437.24c5.78.43,10.15,5.36,9.72,11-.45,5.64-5.47,9.89-11.28,9.47-5.78-.4-10.12-5.33-9.69-10.97.43-5.67,5.47-9.89,11.25-9.49h0Z"/>
  <path class="cls-4" d="M585.26,470.09c5.81.4,10.15,5.33,9.72,10.97-.43,5.67-5.47,9.92-11.25,9.49-5.81-.43-10.15-5.36-9.72-11,.43-5.64,5.47-9.89,11.25-9.47h0Z"/>
  <path class="cls-4" d="M582.79,502.9c5.78.43,10.12,5.33,9.69,11-.43,5.64-5.47,9.89-11.25,9.47-5.78-.43-10.15-5.33-9.72-11,.43-5.64,5.47-9.89,11.28-9.47h0Z"/>
  <path class="cls-4" d="M580.3,535.75c5.78.4,10.12,5.33,9.69,10.97-.43,5.67-5.47,9.89-11.25,9.49-5.78-.43-10.12-5.36-9.69-11,.43-5.67,5.47-9.89,11.25-9.47h0Z"/>
  <path class="cls-4" d="M577.81,568.56c5.78.42,10.15,5.33,9.72,11-.45,5.64-5.47,9.89-11.28,9.47-5.78-.43-10.12-5.33-9.69-11,.43-5.64,5.47-9.89,11.25-9.47h0Z"/>
  <path class="cls-4" d="M575.31,601.38c5.81.42,10.15,5.36,9.72,11-.43,5.67-5.47,9.89-11.25,9.47-5.81-.4-10.15-5.33-9.72-10.97.43-5.67,5.47-9.89,11.25-9.49h0Z"/>
  <path class="cls-4" d="M572.85,634.23c5.78.4,10.12,5.33,9.69,10.97-.43,5.67-5.47,9.92-11.25,9.49-5.78-.43-10.15-5.33-9.72-11,.43-5.64,5.47-9.89,11.28-9.47h0Z"/>
  <path class="cls-4" d="M570.35,667.04c5.78.42,10.12,5.33,9.69,11,0,.14-.03.26-.03.4l-20.12,2.86c-.62-1.45-.94-3.09-.79-4.79.43-5.64,5.47-9.89,11.25-9.47h0Z"/>
  <path class="cls-4" d="M633.81,275.54c5.81.43,10.15,5.33,9.72,11-.43,5.64-5.47,9.89-11.25,9.47-5.81-.43-10.15-5.33-9.72-11,.43-5.64,5.47-9.89,11.25-9.47h0Z"/>
  <path class="cls-4" d="M631.34,308.36c5.78.43,10.12,5.36,9.69,11-.43,5.67-5.47,9.89-11.25,9.47-5.78-.4-10.15-5.33-9.72-10.97.45-5.67,5.47-9.89,11.28-9.49h0Z"/>
  <path class="cls-4" d="M628.85,341.2c5.78.4,10.12,5.33,9.69,10.97-.43,5.67-5.47,9.92-11.25,9.49-5.78-.43-10.12-5.36-9.69-11,.43-5.64,5.47-9.89,11.25-9.47h0Z"/>
  <path class="cls-4" d="M626.36,374.02c5.78.42,10.15,5.33,9.72,11-.43,5.64-5.47,9.89-11.28,9.47-5.78-.4-10.12-5.33-9.69-10.97.43-5.67,5.47-9.92,11.25-9.49h0Z"/>
  <path class="cls-4" d="M623.86,406.86c5.81.4,10.15,5.33,9.72,10.97-.43,5.67-5.47,9.89-11.25,9.49-5.81-.43-10.15-5.36-9.72-11,.43-5.67,5.47-9.89,11.25-9.47h0Z"/>
  <path class="cls-4" d="M621.4,439.68c5.78.42,10.12,5.33,9.69,11-.43,5.64-5.47,9.89-11.25,9.47-5.78-.43-10.15-5.33-9.72-11,.45-5.64,5.47-9.89,11.28-9.47h0Z"/>
  <path class="cls-4" d="M618.9,472.5c5.78.42,10.12,5.36,9.69,11-.43,5.67-5.47,9.89-11.25,9.47-5.78-.4-10.12-5.33-9.69-10.97.43-5.67,5.47-9.89,11.25-9.49h0Z"/>
  <path class="cls-4" d="M616.41,505.34c5.78.42,10.15,5.33,9.72,11-.43,5.64-5.47,9.89-11.28,9.47-5.78-.42-10.12-5.33-9.69-11,.43-5.64,5.47-9.89,11.25-9.47h0Z"/>
  <path class="cls-4" d="M613.91,538.16c5.81.42,10.15,5.36,9.72,11-.43,5.64-5.47,9.89-11.25,9.47-5.81-.4-10.15-5.33-9.72-10.97.43-5.67,5.47-9.92,11.25-9.49h0Z"/>
  <path class="cls-4" d="M611.45,571c5.78.4,10.12,5.33,9.69,10.97-.43,5.67-5.47,9.89-11.25,9.49-5.78-.42-10.15-5.36-9.72-11,.45-5.64,5.47-9.89,11.28-9.47h0Z"/>
  <path class="cls-4" d="M608.95,603.82c5.78.43,10.12,5.33,9.69,11-.43,5.64-5.47,9.89-11.25,9.47-5.78-.42-10.12-5.33-9.69-11,.43-5.64,5.47-9.89,11.25-9.47h0Z"/>
  <path class="cls-4" d="M606.46,636.63c5.78.43,10.15,5.36,9.72,11-.43,5.67-5.47,9.89-11.28,9.49-5.78-.42-10.12-5.36-9.69-11,.43-5.67,5.47-9.89,11.25-9.49h0Z"/>
  <path class="cls-4" d="M603.97,669.48c3.32.23,6.15,1.93,7.88,4.42l-18.65,2.64c1.45-4.39,5.84-7.42,10.77-7.06h0Z"/>
  <path class="cls-4" d="M667.45,277.98c5.78.4,10.15,5.33,9.69,10.97-.43,5.67-5.44,9.89-11.25,9.49-5.78-.43-10.12-5.36-9.69-11,.43-5.64,5.47-9.89,11.25-9.47h0Z"/>
  <path class="cls-4" d="M664.96,310.79c5.78.42,10.15,5.33,9.72,11-.43,5.64-5.47,9.89-11.25,9.47-5.81-.43-10.15-5.33-9.72-11,.43-5.64,5.47-9.89,11.25-9.47h0Z"/>
  <path class="cls-4" d="M662.46,343.61c5.81.42,10.15,5.36,9.72,11-.43,5.67-5.47,9.89-11.25,9.49-5.81-.43-10.15-5.36-9.72-11,.43-5.67,5.47-9.89,11.25-9.49h0Z"/>
  <path class="cls-4" d="M660,376.45c5.78.42,10.12,5.33,9.69,11-.43,5.64-5.47,9.89-11.25,9.47s-10.15-5.33-9.69-11c.43-5.64,5.44-9.89,11.25-9.47h0Z"/>
  <path class="cls-4" d="M657.5,409.27c5.78.42,10.15,5.36,9.69,11-.43,5.64-5.44,9.89-11.25,9.47-5.78-.4-10.12-5.33-9.69-10.97.43-5.67,5.47-9.92,11.25-9.49h0Z"/>
  <path class="cls-4" d="M655.01,442.12c5.78.4,10.15,5.33,9.72,10.97-.43,5.67-5.47,9.89-11.28,9.49-5.78-.43-10.12-5.36-9.69-11,.43-5.64,5.47-9.89,11.25-9.47h0Z"/>
  <path class="cls-4" d="M652.52,474.93c5.81.42,10.15,5.33,9.72,11-.43,5.64-5.47,9.89-11.25,9.47-5.81-.43-10.15-5.33-9.72-11,.43-5.64,5.47-9.89,11.25-9.47h0Z"/>
  <path class="cls-4" d="M650.05,507.75c5.78.42,10.12,5.36,9.69,11-.43,5.67-5.47,9.89-11.25,9.49-5.78-.42-10.15-5.36-9.69-11,.43-5.67,5.44-9.89,11.25-9.49h0Z"/>
  <path class="cls-4" d="M647.56,540.59c5.78.42,10.15,5.33,9.69,11-.43,5.64-5.44,9.89-11.25,9.47-5.78-.42-10.12-5.33-9.69-11,.43-5.64,5.47-9.89,11.25-9.47h0Z"/>
  <path class="cls-4" d="M645.06,573.41c5.78.42,10.15,5.36,9.72,11-.43,5.64-5.47,9.89-11.28,9.47-5.78-.4-10.12-5.33-9.69-10.97.43-5.67,5.47-9.89,11.25-9.49h0Z"/>
  <path class="cls-4" d="M642.57,606.25c5.81.4,10.15,5.33,9.72,10.97-.43,5.67-5.47,9.92-11.25,9.49-5.81-.42-10.15-5.36-9.72-11,.43-5.64,5.47-9.89,11.25-9.47h0Z"/>
  <path class="cls-4" d="M640.1,639.07c5.78.43,10.12,5.33,9.69,11-.43,5.64-5.47,9.89-11.25,9.47-5.78-.42-10.15-5.33-9.69-11,.43-5.64,5.44-9.89,11.25-9.47h0Z"/>
  <path class="cls-4" d="M701.09,280.39c5.78.42,10.12,5.36,9.69,11-.43,5.64-5.47,9.89-11.25,9.47-5.78-.4-10.15-5.33-9.72-10.97.43-5.67,5.47-9.89,11.28-9.49h0Z"/>
  <path class="cls-4" d="M698.6,313.23c5.78.4,10.12,5.33,9.69,10.97-.43,5.67-5.47,9.92-11.25,9.49-5.78-.42-10.15-5.36-9.69-11,.43-5.64,5.47-9.89,11.25-9.47h0Z"/>
  <path class="cls-4" d="M696.11,346.05c5.78.43,10.15,5.33,9.72,11-.45,5.64-5.47,9.89-11.28,9.47-5.78-.42-10.12-5.33-9.69-11,.43-5.64,5.47-9.89,11.25-9.47h0Z"/>
  <path class="cls-4" d="M693.61,378.86c5.81.43,10.15,5.36,9.72,11-.43,5.67-5.47,9.89-11.25,9.49-5.81-.42-10.15-5.36-9.72-11,.43-5.67,5.47-9.89,11.25-9.49h0Z"/>
  <path class="cls-4" d="M691.15,411.71c5.78.43,10.12,5.33,9.69,11-.43,5.64-5.47,9.89-11.25,9.47-5.78-.42-10.15-5.33-9.72-11,.43-5.64,5.47-9.89,11.28-9.47h0Z"/>
  <path class="cls-4" d="M688.65,444.52c5.78.43,10.12,5.36,9.69,11-.43,5.64-5.47,9.89-11.25,9.47-5.78-.4-10.15-5.33-9.69-10.97.43-5.67,5.47-9.89,11.25-9.49h0Z"/>
  <path class="cls-4" d="M686.16,477.37c5.78.4,10.15,5.33,9.69,10.97-.43,5.67-5.44,9.92-11.25,9.49-5.78-.42-10.12-5.36-9.69-11,.43-5.64,5.47-9.89,11.25-9.47h0Z"/>
  <path class="cls-4" d="M683.66,510.19c5.81.43,10.15,5.33,9.72,11-.43,5.64-5.47,9.89-11.25,9.47-5.81-.42-10.15-5.33-9.72-11,.43-5.64,5.47-9.89,11.25-9.47h0Z"/>
  <path class="cls-4" d="M681.2,543.03c5.78.4,10.12,5.33,9.69,10.97-.43,5.67-5.47,9.89-11.25,9.49-5.78-.43-10.15-5.36-9.72-11,.43-5.67,5.47-9.89,11.28-9.47h0Z"/>
  <path class="cls-4" d="M678.7,575.85c5.78.43,10.12,5.33,9.69,11-.43,5.64-5.47,9.89-11.25,9.47-5.78-.43-10.15-5.33-9.69-11,.43-5.64,5.44-9.89,11.25-9.47h0Z"/>
  <path class="cls-4" d="M676.21,608.66c5.78.43,10.15,5.36,9.69,11-.43,5.67-5.44,9.89-11.25,9.47-5.78-.4-10.12-5.33-9.69-10.97.43-5.67,5.47-9.89,11.25-9.49h0Z"/>
  <path class="cls-4" d="M673.72,641.51c5.81.4,10.15,5.33,9.72,11-.43,5.64-5.47,9.89-11.25,9.47-5.81-.43-10.15-5.33-9.72-11,.43-5.64,5.47-9.89,11.25-9.47h0Z"/>
  <path class="cls-4" d="M734.71,282.82c5.78.42,10.15,5.33,9.72,11-.45,5.64-5.47,9.89-11.28,9.47-5.78-.42-10.12-5.33-9.69-11,.43-5.64,5.47-9.89,11.25-9.47h0Z"/>
  <path class="cls-4" d="M732.21,315.64c5.81.42,10.15,5.36,9.72,11-.43,5.64-5.47,9.89-11.25,9.47-5.81-.4-10.15-5.33-9.72-10.97.43-5.67,5.47-9.89,11.25-9.49h0Z"/>
  <path class="cls-4" d="M729.75,348.48c5.78.4,10.12,5.33,9.69,10.97-.43,5.67-5.47,9.92-11.25,9.49-5.78-.42-10.15-5.33-9.72-11,.45-5.64,5.47-9.89,11.28-9.47h0Z"/>
  <path class="cls-4" d="M727.25,381.3c5.78.43,10.12,5.33,9.69,11-.43,5.64-5.47,9.89-11.25,9.47-5.78-.4-10.12-5.33-9.69-10.97.43-5.67,5.47-9.92,11.25-9.49h0Z"/>
  <path class="cls-4" d="M724.76,414.15c5.78.4,10.15,5.33,9.72,10.97-.45,5.67-5.47,9.89-11.28,9.49-5.78-.42-10.12-5.36-9.69-11,.43-5.64,5.47-9.89,11.25-9.47h0Z"/>
  <path class="cls-4" d="M722.27,446.96c5.81.43,10.15,5.33,9.72,11-.43,5.64-5.47,9.89-11.25,9.47-5.81-.42-10.15-5.33-9.72-11,.43-5.64,5.47-9.89,11.25-9.47h0Z"/>
  <path class="cls-4" d="M719.8,479.78c5.78.43,10.12,5.36,9.69,11-.43,5.67-5.47,9.89-11.25,9.47-5.78-.4-10.15-5.33-9.72-10.97.43-5.67,5.47-9.89,11.28-9.49h0Z"/>
  <path class="cls-4" d="M717.31,512.62c5.78.43,10.12,5.33,9.69,11-.43,5.64-5.47,9.89-11.25,9.47-5.78-.42-10.12-5.33-9.69-11,.43-5.64,5.47-9.89,11.25-9.47h0Z"/>
  <path class="cls-4" d="M714.81,545.44c5.78.43,10.15,5.36,9.72,11-.45,5.64-5.47,9.89-11.28,9.47-5.78-.4-10.12-5.33-9.69-10.97.43-5.67,5.47-9.92,11.25-9.49h0Z"/>
  <path class="cls-4" d="M712.32,578.28c5.81.4,10.15,5.33,9.72,10.97-.43,5.67-5.47,9.89-11.25,9.49-5.81-.43-10.15-5.36-9.72-11s5.47-9.89,11.25-9.47h0Z"/>
  <path class="cls-4" d="M709.85,611.1c5.78.43,10.12,5.33,9.69,11-.43,5.64-5.47,9.89-11.25,9.47-5.78-.43-10.15-5.33-9.72-11,.43-5.64,5.47-9.89,11.28-9.47h0Z"/>
  <path class="cls-4" d="M707.36,643.92c5.78.43,10.12,5.36,9.69,11-.11,1.5-.54,2.92-1.25,4.14l-16.64,2.38c-2.1-2.04-3.32-4.93-3.06-8.02.43-5.67,5.47-9.89,11.25-9.49h0Z"/>
  <path class="cls-4" d="M768.35,285.26c5.78.4,10.12,5.33,9.69,10.97-.43,5.67-5.47,9.89-11.25,9.49-5.78-.43-10.15-5.36-9.72-11,.45-5.64,5.47-9.89,11.28-9.47h0Z"/>
  <path class="cls-4" d="M765.86,318.08c5.78.43,10.12,5.33,9.69,11-.43,5.64-5.47,9.89-11.25,9.47-5.78-.43-10.12-5.33-9.69-11,.43-5.64,5.47-9.89,11.25-9.47h0Z"/>
  <path class="cls-4" d="M763.36,350.89c5.78.43,10.15,5.36,9.72,11-.43,5.67-5.47,9.89-11.28,9.49-5.78-.43-10.12-5.36-9.69-11,.43-5.67,5.47-9.89,11.25-9.49h0Z"/>
  <path class="cls-4" d="M760.87,383.74c5.81.43,10.15,5.33,9.72,11-.43,5.64-5.47,9.89-11.25,9.47-5.81-.43-10.15-5.33-9.72-11,.43-5.64,5.47-9.89,11.25-9.47h0Z"/>
  <path class="cls-4" d="M758.4,416.55c5.78.43,10.12,5.36,9.69,11-.43,5.64-5.47,9.89-11.25,9.47-5.78-.4-10.15-5.33-9.72-10.97.45-5.67,5.47-9.92,11.28-9.49h0Z"/>
  <path class="cls-4" d="M755.91,449.4c5.78.4,10.12,5.33,9.69,10.97-.43,5.67-5.47,9.92-11.25,9.49-5.78-.43-10.12-5.36-9.69-11,.43-5.64,5.47-9.89,11.25-9.47h0Z"/>
  <path class="cls-4" d="M753.41,482.22c5.78.43,10.15,5.33,9.72,11-.43,5.64-5.47,9.89-11.28,9.47-5.78-.43-10.12-5.33-9.69-11,.43-5.64,5.47-9.89,11.25-9.47h0Z"/>
  <path class="cls-4" d="M750.92,515.03c5.81.43,10.15,5.36,9.72,11-.43,5.67-5.47,9.89-11.25,9.49-5.81-.43-10.15-5.36-9.72-11,.43-5.67,5.47-9.89,11.25-9.49h0Z"/>
  <path class="cls-4" d="M748.45,547.88c5.78.43,10.12,5.33,9.69,11-.43,5.64-5.47,9.89-11.25,9.47-5.78-.43-10.15-5.33-9.72-11,.45-5.64,5.47-9.89,11.28-9.47h0Z"/>
  <path class="cls-4" d="M745.96,580.69c5.78.43,10.12,5.36,9.69,11-.43,5.64-5.47,9.89-11.25,9.47-5.78-.4-10.12-5.33-9.69-10.97.43-5.67,5.47-9.89,11.25-9.49h0Z"/>
  <path class="cls-4" d="M743.47,613.54c5.78.4,10.15,5.33,9.72,10.97-.45,5.67-5.47,9.92-11.28,9.49-5.78-.43-10.12-5.36-9.69-11,.43-5.64,5.47-9.89,11.25-9.47h0Z"/>
  <path class="cls-4" d="M740.97,646.35c4.65.34,8.39,3.57,9.44,7.77l-20.69,2.95c-.03-.4-.03-.82,0-1.25.43-5.64,5.47-9.89,11.25-9.47h0Z"/>
  <path class="cls-4" d="M801.96,287.67c5.78.43,10.15,5.36,9.72,11s-5.47,9.89-11.25,9.47c-5.81-.4-10.15-5.33-9.72-10.97.43-5.67,5.47-9.89,11.25-9.49h0Z"/>
  <path class="cls-4" d="M799.47,320.51c5.81.4,10.15,5.33,9.72,10.97-.43,5.67-5.47,9.92-11.25,9.49-5.81-.43-10.15-5.36-9.72-11,.43-5.64,5.47-9.89,11.25-9.47h0Z"/>
  <path class="cls-4" d="M797,353.33c5.78.43,10.12,5.33,9.69,11-.43,5.64-5.47,9.89-11.25,9.47-5.78-.43-10.15-5.33-9.69-11,.43-5.64,5.44-9.89,11.25-9.47h0Z"/>
  <path class="cls-4" d="M794.51,386.15c5.78.43,10.15,5.36,9.69,11-.43,5.67-5.44,9.89-11.25,9.49-5.78-.43-10.12-5.36-9.69-11,.43-5.67,5.47-9.89,11.25-9.49h0Z"/>
  <path class="cls-4" d="M792.01,418.99c5.78.42,10.15,5.33,9.72,11-.43,5.64-5.47,9.89-11.28,9.47-5.78-.43-10.12-5.33-9.69-11,.43-5.64,5.47-9.89,11.25-9.47h0Z"/>
  <path class="cls-4" d="M789.52,451.81c5.81.42,10.15,5.36,9.72,11s-5.47,9.89-11.25,9.47c-5.81-.4-10.15-5.33-9.72-10.97.43-5.67,5.47-9.89,11.25-9.49h0Z"/>
  <path class="cls-4" d="M787.06,484.65c5.78.4,10.12,5.33,9.69,10.97-.43,5.67-5.47,9.92-11.25,9.49-5.78-.43-10.15-5.36-9.69-11,.43-5.64,5.44-9.89,11.25-9.47h0Z"/>
  <path class="cls-4" d="M784.56,517.47c5.78.42,10.15,5.33,9.69,11-.43,5.64-5.47,9.89-11.25,9.47-5.78-.43-10.12-5.33-9.69-11,.43-5.64,5.47-9.89,11.25-9.47h0Z"/>
  <path class="cls-4" d="M782.07,550.31c5.78.4,10.15,5.33,9.72,10.97-.43,5.67-5.47,9.89-11.28,9.49-5.78-.43-10.12-5.36-9.69-11,.43-5.67,5.47-9.89,11.25-9.47h0Z"/>
  <path class="cls-4" d="M779.57,583.13c5.81.42,10.15,5.33,9.72,11-.43,5.64-5.47,9.89-11.25,9.47-5.81-.43-10.15-5.33-9.72-11,.43-5.64,5.47-9.89,11.25-9.47h0Z"/>
  <path class="cls-4" d="M777.11,615.95c5.78.42,10.12,5.36,9.69,11-.43,5.67-5.47,9.89-11.25,9.47-5.78-.4-10.15-5.33-9.72-10.97.45-5.67,5.47-9.89,11.28-9.49h0Z"/>
  <path class="cls-4" d="M774.61,648.79c1.59.11,3.03.57,4.34,1.25l-12.64,1.81c2.1-2.1,5.07-3.29,8.3-3.06h0Z"/>
  <path class="cls-4" d="M835.6,290.11c5.78.43,10.12,5.33,9.69,11-.43,5.64-5.47,9.89-11.25,9.47-5.78-.43-10.15-5.33-9.69-11,.43-5.64,5.44-9.89,11.25-9.47h0Z"/>
  <path class="cls-4" d="M833.11,322.92c5.78.43,10.15,5.36,9.72,11-.45,5.67-5.47,9.89-11.28,9.47-5.78-.4-10.12-5.33-9.69-10.97.43-5.67,5.47-9.89,11.25-9.49h0Z"/>
  <path class="cls-4" d="M830.62,355.77c5.81.43,10.15,5.33,9.72,11-.43,5.64-5.47,9.89-11.25,9.47-5.81-.43-10.15-5.33-9.72-11,.43-5.64,5.47-9.89,11.25-9.47h0Z"/>
  <path class="cls-4" d="M828.15,388.58c5.78.43,10.12,5.36,9.69,11-.43,5.64-5.47,9.89-11.25,9.47-5.78-.4-10.15-5.33-9.72-10.97.43-5.67,5.47-9.92,11.28-9.49h0Z"/>
  <path class="cls-4" d="M825.66,421.43c5.78.4,10.12,5.33,9.69,10.97-.43,5.67-5.47,9.89-11.25,9.49-5.78-.43-10.15-5.36-9.69-11,.43-5.64,5.44-9.89,11.25-9.47h0Z"/>
  <path class="cls-4" d="M823.16,454.24c5.78.42,10.15,5.33,9.69,11-.43,5.64-5.44,9.89-11.25,9.47-5.78-.43-10.12-5.33-9.69-11,.43-5.64,5.47-9.89,11.25-9.47h0Z"/>
  <path class="cls-4" d="M820.67,487.06c5.81.42,10.15,5.36,9.72,11-.43,5.67-5.47,9.89-11.25,9.49-5.81-.43-10.15-5.36-9.72-11,.43-5.67,5.47-9.89,11.25-9.49h0Z"/>
  <path class="cls-4" d="M818.17,519.91c5.81.42,10.15,5.33,9.72,11-.43,5.64-5.47,9.89-11.25,9.47-5.78-.43-10.15-5.33-9.72-11,.43-5.64,5.47-9.89,11.25-9.47h0Z"/>
  <path class="cls-4" d="M815.71,552.72c5.78.42,10.12,5.36,9.69,11-.43,5.64-5.47,9.89-11.25,9.47-5.78-.4-10.15-5.33-9.69-10.97.43-5.67,5.44-9.92,11.25-9.49h0Z"/>
  <path class="cls-4" d="M813.21,585.57c5.78.4,10.15,5.33,9.69,10.97-.43,5.67-5.44,9.89-11.25,9.49-5.78-.43-10.12-5.36-9.69-11,.43-5.64,5.47-9.89,11.25-9.47h0Z"/>
  <path class="cls-4" d="M810.72,618.38c5.78.42,10.15,5.33,9.72,11-.43,5.64-5.47,9.89-11.25,9.47-5.81-.43-10.15-5.33-9.72-11,.43-5.64,5.47-9.89,11.25-9.47h0Z"/>
  <path class="cls-4" d="M869.22,292.54c5.81.4,10.15,5.33,9.72,10.97-.43,5.67-5.47,9.89-11.25,9.49-5.81-.43-10.15-5.36-9.72-11,.43-5.64,5.47-9.89,11.25-9.47h0Z"/>
  <path class="cls-4" d="M866.75,325.36c5.78.42,10.12,5.33,9.69,11-.43,5.64-5.47,9.89-11.25,9.47-5.78-.42-10.15-5.33-9.72-11,.45-5.64,5.47-9.89,11.28-9.47h0Z"/>
  <path class="cls-4" d="M864.26,358.18c5.78.42,10.12,5.36,9.69,11-.43,5.67-5.47,9.89-11.25,9.49-5.78-.42-10.12-5.36-9.69-11,.43-5.67,5.47-9.89,11.25-9.49h0Z"/>
  <path class="cls-4" d="M861.76,391.02c5.78.43,10.15,5.33,9.72,11-.45,5.64-5.47,9.89-11.28,9.47-5.78-.42-10.12-5.33-9.69-11,.43-5.64,5.47-9.89,11.25-9.47h0Z"/>
  <path class="cls-4" d="M859.27,423.84c5.81.43,10.15,5.36,9.72,11-.43,5.64-5.47,9.89-11.25,9.47-5.81-.4-10.15-5.33-9.72-10.97.43-5.67,5.47-9.92,11.25-9.49h0Z"/>
  <path class="cls-4" d="M856.8,456.68c5.78.4,10.12,5.33,9.69,10.97-.43,5.67-5.47,9.92-11.25,9.49-5.78-.42-10.15-5.36-9.72-11,.43-5.64,5.47-9.89,11.28-9.47h0Z"/>
  <path class="cls-4" d="M854.31,489.5c5.78.43,10.12,5.33,9.69,11-.43,5.64-5.47,9.89-11.25,9.47-5.78-.42-10.12-5.33-9.69-11,.43-5.64,5.47-9.89,11.25-9.47h0Z"/>
  <path class="cls-4" d="M851.82,522.31c5.78.43,10.15,5.36,9.72,11-.45,5.67-5.47,9.89-11.28,9.49-5.78-.42-10.12-5.36-9.69-11,.43-5.67,5.47-9.89,11.25-9.49h0Z"/>
  <path class="cls-4" d="M849.32,555.16c5.81.43,10.15,5.33,9.72,11-.43,5.64-5.47,9.89-11.25,9.47-5.81-.42-10.15-5.33-9.72-11,.43-5.64,5.47-9.89,11.25-9.47h0Z"/>
  <path class="cls-4" d="M846.86,587.98c5.78.43,10.12,5.36,9.69,11-.43,5.64-5.47,9.89-11.25,9.47-5.78-.4-10.15-5.33-9.72-10.97.43-5.67,5.47-9.89,11.28-9.49h0Z"/>
  <path class="cls-4" d="M844.36,620.82c5.78.4,10.12,5.33,9.69,10.97-.28,3.68-2.49,6.77-5.61,8.36l-6.86.96c-5.16-.96-8.87-5.58-8.47-10.83.43-5.64,5.47-9.89,11.25-9.47h0Z"/>
  <path class="cls-4" d="M902.86,294.95c5.78.42,10.12,5.36,9.69,11-.43,5.64-5.47,9.89-11.25,9.47-5.78-.4-10.12-5.33-9.69-10.97.43-5.67,5.47-9.89,11.25-9.49h0Z"/>
  <path class="cls-4" d="M900.37,327.8c5.78.4,10.15,5.33,9.72,10.97-.43,5.67-5.47,9.92-11.28,9.49-5.78-.43-10.12-5.36-9.69-11,.43-5.64,5.47-9.89,11.25-9.47h0Z"/>
  <path class="cls-4" d="M897.87,360.61c5.81.42,10.15,5.33,9.72,11-.43,5.64-5.47,9.89-11.25,9.47-5.81-.43-10.15-5.33-9.72-11,.43-5.64,5.47-9.89,11.25-9.47h0Z"/>
  <path class="cls-4" d="M895.41,393.46c5.78.4,10.12,5.33,9.69,10.97-.43,5.67-5.47,9.89-11.25,9.49-5.78-.42-10.15-5.36-9.72-11,.45-5.67,5.47-9.89,11.28-9.47h0Z"/>
  <path class="cls-4" d="M892.91,426.27c5.78.42,10.12,5.33,9.69,11-.43,5.64-5.47,9.89-11.25,9.47-5.78-.42-10.12-5.33-9.69-11,.43-5.64,5.47-9.89,11.25-9.47h0Z"/>
  <path class="cls-4" d="M890.42,459.09c5.78.42,10.15,5.36,9.72,11-.45,5.67-5.47,9.89-11.28,9.47-5.78-.4-10.12-5.33-9.69-10.97.43-5.67,5.47-9.89,11.25-9.49h0Z"/>
  <path class="cls-4" d="M887.92,491.94c5.81.4,10.15,5.33,9.72,10.97-.43,5.67-5.47,9.92-11.25,9.49-5.81-.42-10.15-5.36-9.72-11s5.47-9.89,11.25-9.47h0Z"/>
  <path class="cls-4" d="M885.46,524.75c5.78.43,10.12,5.33,9.69,11-.43,5.64-5.47,9.89-11.25,9.47-5.78-.4-10.15-5.33-9.72-10.97.45-5.67,5.47-9.92,11.28-9.49h0Z"/>
  <path class="cls-4" d="M882.96,557.6c5.78.4,10.12,5.33,9.69,10.97-.43,5.67-5.47,9.89-11.25,9.49-5.78-.42-10.12-5.36-9.69-11,.43-5.67,5.47-9.89,11.25-9.47h0Z"/>
  <path class="cls-4" d="M880.47,590.41c5.78.43,10.15,5.33,9.72,11-.45,5.64-5.47,9.89-11.28,9.47-5.78-.42-10.12-5.33-9.69-11,.43-5.64,5.47-9.89,11.25-9.47h0Z"/>
  <path class="cls-4" d="M877.98,623.23c5.81.43,10.15,5.36,9.72,11,0,.11-.03.23-.03.31l-20.15,2.89c-.62-1.45-.91-3.06-.79-4.7.43-5.67,5.47-9.89,11.25-9.49h0Z"/>
  <path class="cls-4" d="M936.47,297.39c5.81.43,10.15,5.33,9.72,11-.43,5.64-5.47,9.89-11.25,9.47-5.81-.42-10.15-5.33-9.72-11,.43-5.64,5.47-9.89,11.25-9.47h0Z"/>
  <path class="cls-4" d="M934.01,330.21c5.78.43,10.12,5.36,9.69,11-.43,5.67-5.47,9.89-11.25,9.47-5.78-.4-10.15-5.33-9.69-10.97.43-5.67,5.44-9.89,11.25-9.49h0Z"/>
  <path class="cls-4" d="M931.51,363.05c5.78.43,10.15,5.33,9.69,11-.43,5.64-5.47,9.89-11.25,9.47-5.78-.43-10.12-5.33-9.69-11,.43-5.64,5.47-9.89,11.25-9.47h0Z"/>
  <path class="cls-4" d="M929.02,395.87c5.78.43,10.15,5.36,9.72,11-.43,5.64-5.47,9.89-11.28,9.47-5.78-.4-10.12-5.33-9.69-10.97.43-5.67,5.47-9.92,11.25-9.49h0Z"/>
  <path class="cls-4" d="M926.53,428.71c5.81.4,10.15,5.33,9.72,10.97-.43,5.67-5.47,9.89-11.25,9.49-5.81-.43-10.15-5.36-9.72-11s5.47-9.89,11.25-9.47h0Z"/>
  <path class="cls-4" d="M924.06,461.53c5.78.43,10.12,5.33,9.69,11-.43,5.64-5.47,9.89-11.25,9.47-5.78-.43-10.15-5.33-9.72-11,.45-5.64,5.47-9.89,11.28-9.47h0Z"/>
  <path class="cls-4" d="M921.57,494.34c5.78.43,10.15,5.36,9.69,11-.43,5.67-5.47,9.89-11.25,9.49-5.78-.43-10.12-5.36-9.69-11,.43-5.67,5.47-9.89,11.25-9.49h0Z"/>
  <path class="cls-4" d="M919.07,527.19c5.78.43,10.15,5.33,9.72,11-.43,5.64-5.47,9.89-11.28,9.47-5.78-.43-10.12-5.33-9.69-11,.43-5.64,5.47-9.89,11.25-9.47h0Z"/>
  <path class="cls-4" d="M916.58,560.01c5.81.43,10.15,5.36,9.72,11-.43,5.64-5.47,9.89-11.25,9.47-5.81-.4-10.15-5.33-9.72-10.97.43-5.67,5.47-9.92,11.25-9.49h0Z"/>
  <path class="cls-4" d="M914.11,592.85c5.78.4,10.12,5.33,9.69,10.97-.43,5.67-5.47,9.89-11.25,9.49-5.78-.43-10.15-5.36-9.72-11,.45-5.64,5.47-9.89,11.28-9.47h0Z"/>
  <path class="cls-4" d="M911.62,625.67c3.26.23,6.09,1.9,7.82,4.34l-18.56,2.66c1.47-4.36,5.84-7.34,10.74-7h0Z"/>
  <path class="cls-4" d="M970.12,299.83c5.78.4,10.15,5.33,9.69,10.97-.43,5.67-5.44,9.89-11.25,9.49-5.78-.42-10.12-5.36-9.69-11,.43-5.64,5.47-9.89,11.25-9.47h0Z"/>
  <path class="cls-4" d="M967.62,332.64c5.81.43,10.15,5.33,9.72,11-.43,5.64-5.47,9.89-11.25,9.47-5.81-.42-10.15-5.33-9.72-11,.43-5.64,5.47-9.89,11.25-9.47h0Z"/>
  <path class="cls-4" d="M965.16,365.46c5.78.43,10.12,5.36,9.69,11-.43,5.67-5.47,9.89-11.25,9.49-5.78-.42-10.15-5.36-9.72-11,.43-5.67,5.47-9.89,11.28-9.49h0Z"/>
  <path class="cls-4" d="M962.66,398.3c5.78.43,10.12,5.33,9.69,11-.43,5.64-5.47,9.89-11.25,9.47-5.78-.42-10.15-5.33-9.69-11,.43-5.64,5.44-9.89,11.25-9.47h0Z"/>
  <path class="cls-4" d="M960.17,431.12c5.78.43,10.15,5.36,9.69,11-.43,5.64-5.44,9.89-11.25,9.47-5.78-.4-10.12-5.33-9.69-10.97.43-5.67,5.47-9.89,11.25-9.49h0Z"/>
  <path class="cls-4" d="M957.67,463.97c5.78.4,10.15,5.33,9.72,10.97-.43,5.67-5.47,9.92-11.25,9.49-5.81-.43-10.15-5.36-9.72-11,.43-5.64,5.47-9.89,11.25-9.47h0Z"/>
  <path class="cls-4" d="M955.18,496.78c5.81.42,10.15,5.33,9.72,11-.43,5.64-5.47,9.89-11.25,9.47-5.78-.43-10.15-5.33-9.72-11,.43-5.64,5.47-9.89,11.25-9.47h0Z"/>
  <path class="cls-4" d="M952.71,529.6c5.78.42,10.12,5.36,9.69,11-.43,5.67-5.47,9.89-11.25,9.49-5.78-.43-10.15-5.36-9.69-11,.43-5.67,5.44-9.89,11.25-9.49h0Z"/>
  <path class="cls-4" d="M950.22,562.44c5.78.42,10.15,5.33,9.69,11-.43,5.64-5.44,9.89-11.25,9.47-5.78-.43-10.12-5.33-9.69-11,.43-5.64,5.47-9.89,11.25-9.47h0Z"/>
  <path class="cls-4" d="M947.73,595.26c5.78.42,10.15,5.36,9.72,11-.43,5.64-5.47,9.89-11.25,9.47-5.81-.4-10.15-5.33-9.72-10.97.43-5.67,5.47-9.89,11.25-9.49h0Z"/>
  <path class="cls-4" d="M1003.76,302.23c5.78.43,10.12,5.36,9.69,11-.43,5.64-5.47,9.89-11.25,9.47-5.78-.4-10.15-5.33-9.72-10.97.43-5.67,5.47-9.89,11.28-9.49h0Z"/>
  <path class="cls-4" d="M1001.26,335.08c5.78.4,10.12,5.33,9.69,10.97-.43,5.67-5.47,9.92-11.25,9.49-5.78-.43-10.12-5.36-9.69-11,.43-5.64,5.47-9.89,11.25-9.47h0Z"/>
  <path class="cls-4" d="M998.77,367.9c5.78.43,10.15,5.33,9.72,11-.45,5.64-5.47,9.89-11.28,9.47-5.78-.43-10.12-5.33-9.69-11,.43-5.64,5.47-9.89,11.25-9.47h0Z"/>
  <path class="cls-4" d="M996.28,400.74c5.81.4,10.15,5.33,9.72,10.97-.43,5.67-5.47,9.89-11.25,9.49-5.81-.43-10.15-5.36-9.72-11,.43-5.67,5.47-9.89,11.25-9.47h0Z"/>
  <path class="cls-4" d="M993.81,433.56c5.78.43,10.12,5.33,9.69,11-.43,5.64-5.47,9.89-11.25,9.47-5.78-.43-10.15-5.33-9.72-11,.43-5.64,5.47-9.89,11.28-9.47h0Z"/>
  <path class="cls-4" d="M991.32,466.37c5.78.43,10.12,5.36,9.69,11-.43,5.67-5.47,9.89-11.25,9.47-5.78-.4-10.12-5.33-9.69-10.97.43-5.67,5.47-9.89,11.25-9.49h0Z"/>
  <path class="cls-4" d="M988.82,499.22c5.78.4,10.15,5.33,9.72,10.97-.45,5.67-5.47,9.92-11.28,9.49-5.78-.43-10.12-5.36-9.69-11,.43-5.64,5.47-9.89,11.25-9.47h0Z"/>
  <path class="cls-4" d="M986.33,532.04c5.81.43,10.15,5.36,9.72,11-.43,5.64-5.47,9.89-11.25,9.47-5.81-.4-10.15-5.33-9.72-10.97.43-5.67,5.47-9.92,11.25-9.49h0Z"/>
  <path class="cls-4" d="M983.86,564.88c5.78.4,10.12,5.33,9.69,10.97-.43,5.67-5.47,9.89-11.25,9.49-5.78-.43-10.15-5.36-9.72-11,.43-5.64,5.47-9.89,11.28-9.47h0Z"/>
  <path class="cls-4" d="M981.37,597.7c5.78.42,10.12,5.33,9.69,11-.43,5.64-5.47,9.89-11.25,9.47-5.78-.43-10.12-5.33-9.69-11,.43-5.64,5.47-9.89,11.25-9.47h0Z"/>
  <path class="cls-4" d="M1039.07,304.93c4.9,1.16,8.39,5.64,8.02,10.74-.45,5.64-5.47,9.89-11.28,9.47-5.78-.43-10.12-5.33-9.69-11,.4-5.3,4.87-9.35,10.2-9.49l2.75.28Z"/>
  <path class="cls-4" d="M1034.88,337.49c5.81.42,10.15,5.36,9.72,11-.43,5.67-5.47,9.89-11.25,9.47-5.81-.4-10.15-5.33-9.72-10.97.43-5.67,5.47-9.89,11.25-9.49h0Z"/>
  <path class="cls-4" d="M1032.41,370.33c5.78.42,10.12,5.33,9.69,11-.43,5.64-5.47,9.89-11.25,9.47-5.78-.43-10.15-5.33-9.72-11,.45-5.64,5.47-9.89,11.28-9.47h0Z"/>
  <path class="cls-4" d="M1029.92,403.15c5.78.42,10.12,5.36,9.69,11-.43,5.64-5.47,9.89-11.25,9.47-5.78-.4-10.12-5.33-9.69-10.97.43-5.67,5.47-9.92,11.25-9.49h0Z"/>
  <path class="cls-4" d="M1027.42,435.99c5.78.4,10.15,5.33,9.72,10.97-.45,5.67-5.47,9.89-11.28,9.49-5.78-.42-10.12-5.36-9.69-11,.43-5.64,5.47-9.89,11.25-9.47h0Z"/>
  <path class="cls-4" d="M1024.93,468.81c5.81.42,10.15,5.33,9.72,11-.43,5.64-5.47,9.89-11.25,9.47-5.81-.42-10.15-5.33-9.72-11,.43-5.64,5.47-9.89,11.25-9.47h0Z"/>
  <path class="cls-4" d="M1022.46,501.63c5.78.42,10.12,5.36,9.69,11-.43,5.67-5.47,9.89-11.25,9.49-5.78-.42-10.15-5.36-9.72-11,.45-5.67,5.47-9.89,11.28-9.49h0Z"/>
  <path class="cls-4" d="M1019.97,534.47c5.78.43,10.12,5.33,9.69,11-.43,5.64-5.47,9.89-11.25,9.47-5.78-.42-10.12-5.33-9.69-11,.43-5.64,5.47-9.89,11.25-9.47h0Z"/>
  <path class="cls-4" d="M1017.47,567.29c5.78.43,10.15,5.36,9.72,11-.45,5.64-5.47,9.89-11.28,9.47-5.78-.4-10.12-5.33-9.69-10.97.43-5.67,5.47-9.92,11.25-9.49h0Z"/>
  <path class="cls-4" d="M1014.98,600.13c5.81.4,10.15,5.33,9.72,10.97-.11,1.47-.54,2.83-1.19,4.08l-16.78,2.38c-2.04-2.04-3.23-4.9-3-7.96.43-5.64,5.47-9.89,11.25-9.47h0Z"/>
  <path class="cls-4" d="M1075.97,308.72c3.09,1.98,5.04,5.5,4.73,9.35-.43,5.67-5.47,9.92-11.25,9.49s-10.15-5.36-9.72-11c.31-4.08,3.06-7.45,6.72-8.81l9.52.96Z"/>
  <path class="cls-4" d="M1068.52,339.93c5.78.42,10.15,5.33,9.69,11-.43,5.64-5.47,9.89-11.25,9.47-5.78-.43-10.12-5.33-9.69-11,.43-5.64,5.47-9.89,11.25-9.47h0Z"/>
  <path class="cls-4" d="M1066.02,372.74c5.78.42,10.15,5.36,9.72,11-.43,5.67-5.47,9.89-11.28,9.49-5.78-.43-10.12-5.36-9.69-11,.43-5.67,5.47-9.89,11.25-9.49h0Z"/>
  <path class="cls-4" d="M1063.53,405.59c5.81.42,10.15,5.33,9.72,11-.43,5.64-5.47,9.89-11.25,9.47-5.81-.43-10.15-5.33-9.72-11,.43-5.64,5.47-9.89,11.25-9.47h0Z"/>
  <path class="cls-4" d="M1061.06,438.4c5.78.42,10.12,5.36,9.69,11-.43,5.64-5.47,9.89-11.25,9.47-5.78-.4-10.15-5.33-9.72-10.97.45-5.67,5.47-9.89,11.28-9.49h0Z"/>
  <path class="cls-4" d="M1058.57,471.25c5.78.4,10.15,5.33,9.69,10.97-.43,5.67-5.47,9.92-11.25,9.49-5.78-.42-10.12-5.36-9.69-11,.43-5.64,5.47-9.89,11.25-9.47h0Z"/>
  <path class="cls-4" d="M1056.08,504.06c5.78.42,10.15,5.33,9.72,11-.43,5.64-5.47,9.89-11.28,9.47-5.78-.43-10.12-5.33-9.69-11,.43-5.64,5.47-9.89,11.25-9.47h0Z"/>
  <path class="cls-4" d="M1053.58,536.88c5.81.42,10.15,5.36,9.72,11-.43,5.67-5.47,9.89-11.25,9.49-5.81-.42-10.15-5.36-9.72-11,.43-5.67,5.47-9.89,11.25-9.49h0Z"/>
  <path class="cls-4" d="M1051.12,569.73c5.78.43,10.12,5.33,9.69,11-.43,5.64-5.47,9.89-11.25,9.47-5.78-.42-10.15-5.33-9.72-11,.45-5.64,5.47-9.89,11.28-9.47h0Z"/>
  <path class="cls-4" d="M1048.62,602.54c4.62.34,8.33,3.54,9.41,7.71l-20.69,2.95c-.03-.4,0-.77.03-1.16.43-5.67,5.47-9.89,11.25-9.49h0Z"/>
  <path class="cls-4" d="M1111.14,312.35c2.18,2.04,3.43,4.99,3.2,8.16-.43,5.64-5.47,9.89-11.25,9.47-5.81-.4-10.15-5.33-9.72-10.97.26-3.4,2.18-6.29,4.96-7.96l12.81,1.3Z"/>
  <path class="cls-4" d="M1102.13,342.36c5.81.4,10.15,5.33,9.72,10.97-.43,5.67-5.47,9.92-11.25,9.49-5.78-.42-10.15-5.36-9.72-11,.43-5.64,5.47-9.89,11.25-9.47h0Z"/>
  <path class="cls-4" d="M1099.67,375.18c5.78.43,10.12,5.33,9.69,11-.43,5.64-5.47,9.89-11.25,9.47-5.78-.42-10.15-5.33-9.69-11,.43-5.64,5.44-9.89,11.25-9.47h0Z"/>
  <path class="cls-4" d="M1097.17,408.02c5.78.4,10.15,5.33,9.69,10.97-.43,5.67-5.44,9.89-11.25,9.49-5.78-.42-10.12-5.36-9.69-11,.43-5.67,5.47-9.89,11.25-9.47h0Z"/>
  <path class="cls-4" d="M1094.68,440.84c5.78.43,10.15,5.33,9.72,11-.43,5.64-5.47,9.89-11.25,9.47-5.81-.42-10.15-5.33-9.72-11,.43-5.64,5.47-9.89,11.25-9.47h0Z"/>
  <path class="cls-4" d="M1092.18,473.66c5.81.43,10.15,5.36,9.72,11-.43,5.67-5.47,9.89-11.25,9.47-5.78-.4-10.15-5.33-9.72-10.97.43-5.67,5.47-9.89,11.25-9.49h0Z"/>
  <path class="cls-4" d="M1089.72,506.5c5.78.4,10.12,5.33,9.69,11-.43,5.64-5.47,9.89-11.25,9.47-5.78-.43-10.15-5.33-9.69-11,.43-5.64,5.44-9.89,11.25-9.47h0Z"/>
  <path class="cls-4" d="M1087.22,539.32c5.78.43,10.15,5.36,9.69,11-.43,5.64-5.44,9.89-11.25,9.47-5.78-.4-10.12-5.33-9.69-10.97.43-5.67,5.47-9.92,11.25-9.49h0Z"/>
  <path class="cls-4" d="M1084.73,572.16c5.78.4,10.15,5.33,9.72,10.97-.43,5.67-5.47,9.89-11.25,9.49-5.81-.43-10.15-5.36-9.72-11,.43-5.64,5.47-9.89,11.25-9.47h0Z"/>
  <path class="cls-4" d="M1082.24,604.98c1.53.11,2.98.54,4.25,1.22l-12.44,1.76c2.07-2.04,5.02-3.2,8.19-2.98h0Z"/>
  <path class="cls-4" d="M1145.81,315.92c1.53,1.93,2.35,4.39,2.15,7.03-.43,5.64-5.47,9.89-11.25,9.47-5.78-.42-10.12-5.33-9.69-11,.2-2.83,1.59-5.33,3.66-7.06l15.13,1.56Z"/>
  <path class="cls-4" d="M1135.77,344.77c5.78.43,10.15,5.36,9.72,11-.45,5.67-5.47,9.89-11.28,9.49-5.78-.42-10.12-5.36-9.69-11,.43-5.67,5.47-9.89,11.25-9.49h0Z"/>
  <path class="cls-4" d="M1133.28,377.62c5.81.43,10.15,5.33,9.72,11-.43,5.64-5.47,9.89-11.25,9.47-5.81-.42-10.15-5.33-9.72-11,.43-5.64,5.47-9.89,11.25-9.47h0Z"/>
  <path class="cls-4" d="M1130.81,410.43c5.78.43,10.12,5.36,9.69,11-.43,5.64-5.47,9.89-11.25,9.47-5.78-.4-10.15-5.33-9.72-10.97.43-5.67,5.47-9.92,11.28-9.49h0Z"/>
  <path class="cls-4" d="M1128.32,443.28c5.78.4,10.12,5.33,9.69,10.97-.43,5.67-5.47,9.89-11.25,9.49-5.78-.42-10.12-5.36-9.69-11,.43-5.64,5.47-9.89,11.25-9.47h0Z"/>
  <path class="cls-4" d="M1125.83,476.09c5.78.43,10.15,5.33,9.72,11-.45,5.64-5.47,9.89-11.28,9.47-5.78-.42-10.12-5.33-9.69-11,.43-5.64,5.47-9.89,11.25-9.47h0Z"/>
  <path class="cls-4" d="M1123.33,508.91c5.81.43,10.15,5.36,9.72,11-.43,5.67-5.47,9.89-11.25,9.49-5.81-.43-10.15-5.36-9.72-11,.43-5.67,5.47-9.89,11.25-9.49h0Z"/>
  <path class="cls-4" d="M1120.87,541.76c5.78.43,10.12,5.33,9.69,11-.43,5.64-5.47,9.89-11.25,9.47-5.78-.43-10.15-5.33-9.72-11,.43-5.64,5.47-9.89,11.28-9.47h0Z"/>
  <path class="cls-4" d="M1118.37,574.57c5.78.43,10.12,5.36,9.69,11-.43,5.64-5.47,9.89-11.25,9.47-5.78-.4-10.15-5.33-9.69-10.97.43-5.67,5.47-9.92,11.25-9.49h0Z"/>
  <path class="cls-4" d="M1180.21,319.49c1.02,1.7,1.56,3.74,1.39,5.87-.43,5.67-5.47,9.92-11.25,9.49-5.81-.43-10.15-5.36-9.72-11,.2-2.38,1.16-4.48,2.69-6.12l16.89,1.76Z"/>
  <path class="cls-4" d="M1169.42,347.21c5.78.43,10.12,5.33,9.69,11-.43,5.64-5.47,9.89-11.25,9.47-5.78-.43-10.15-5.33-9.72-11,.45-5.64,5.47-9.89,11.28-9.47h0Z"/>
  <path class="cls-4" d="M1166.92,380.03c5.78.43,10.12,5.36,9.69,11-.43,5.67-5.47,9.89-11.25,9.49-5.78-.43-10.12-5.36-9.69-11,.43-5.67,5.47-9.89,11.25-9.49h0Z"/>
  <path class="cls-4" d="M1164.43,412.87c5.78.43,10.15,5.33,9.72,11-.45,5.64-5.47,9.89-11.28,9.47-5.78-.43-10.12-5.33-9.69-11,.43-5.64,5.47-9.89,11.25-9.47h0Z"/>
  <path class="cls-4" d="M1161.93,445.69c5.81.43,10.15,5.36,9.72,11-.43,5.64-5.47,9.89-11.25,9.47-5.81-.4-10.15-5.33-9.72-10.97.43-5.67,5.47-9.89,11.25-9.49h0Z"/>
  <path class="cls-4" d="M1159.47,478.53c5.78.4,10.12,5.33,9.69,10.97-.43,5.67-5.47,9.92-11.25,9.49-5.78-.43-10.15-5.36-9.72-11,.45-5.64,5.47-9.89,11.28-9.47h0Z"/>
  <path class="cls-4" d="M1156.97,511.35c5.78.43,10.12,5.33,9.69,11-.43,5.64-5.47,9.89-11.25,9.47-5.78-.43-10.12-5.33-9.69-11,.43-5.64,5.47-9.89,11.25-9.47h0Z"/>
  <path class="cls-4" d="M1154.48,544.19c5.78.4,10.15,5.33,9.72,10.97-.45,5.67-5.47,9.89-11.28,9.49-5.78-.43-10.12-5.36-9.69-11,.43-5.67,5.47-9.89,11.25-9.47h0Z"/>
  <path class="cls-4" d="M1151.99,577.01c5.81.43,10.15,5.33,9.72,11-.28,3.57-2.41,6.6-5.41,8.22l-7.31,1.05c-5.04-1.08-8.64-5.61-8.25-10.8.43-5.64,5.47-9.89,11.25-9.47h0Z"/>
  <path class="cls-4" d="M1214.42,323.01c.62,1.47.94,3.09.79,4.79-.43,5.64-5.47,9.89-11.25,9.47-5.78-.4-10.12-5.33-9.69-10.97.14-1.93.82-3.71,1.9-5.19l18.25,1.9Z"/>
  <path class="cls-4" d="M1203.03,349.65c5.78.4,10.15,5.33,9.72,10.97-.43,5.67-5.47,9.92-11.28,9.49-5.78-.43-10.12-5.33-9.69-11,.43-5.64,5.47-9.89,11.25-9.47h0Z"/>
  <path class="cls-4" d="M1200.54,382.46c5.81.42,10.15,5.33,9.72,11-.43,5.64-5.47,9.89-11.25,9.47-5.81-.4-10.15-5.33-9.72-11,.43-5.64,5.47-9.89,11.25-9.47h0Z"/>
  <path class="cls-4" d="M1198.07,415.31c5.78.4,10.12,5.33,9.69,10.97-.43,5.67-5.47,9.89-11.25,9.49-5.78-.43-10.15-5.36-9.72-11,.45-5.67,5.47-9.89,11.28-9.47h0Z"/>
  <path class="cls-4" d="M1195.58,448.12c5.78.42,10.12,5.33,9.69,11-.43,5.64-5.47,9.89-11.25,9.47-5.78-.43-10.12-5.33-9.69-11,.43-5.64,5.47-9.89,11.25-9.47h0Z"/>
  <path class="cls-4" d="M1193.08,480.94c5.78.42,10.15,5.36,9.72,11-.43,5.67-5.47,9.89-11.28,9.47-5.78-.4-10.12-5.33-9.69-10.97.43-5.67,5.47-9.89,11.25-9.49h0Z"/>
  <path class="cls-4" d="M1190.59,513.79c5.81.42,10.15,5.33,9.72,11-.43,5.64-5.47,9.89-11.25,9.47-5.81-.43-10.15-5.33-9.72-11,.43-5.64,5.47-9.89,11.25-9.47h0Z"/>
  <path class="cls-4" d="M1188.12,546.6c5.78.42,10.12,5.36,9.69,11-.43,5.64-5.47,9.89-11.25,9.47-5.78-.4-10.15-5.33-9.72-10.97.45-5.67,5.47-9.92,11.28-9.49h0Z"/>
  <path class="cls-4" d="M1185.63,579.45c5.78.4,10.12,5.33,9.69,10.97v.26l-20.21,2.86c-.6-1.42-.88-2.98-.74-4.62.43-5.64,5.47-9.89,11.25-9.47h0Z"/>
  <path class="cls-4" d="M1248.43,326.52c.37,1.16.51,2.41.43,3.71-.43,5.64-5.47,9.89-11.25,9.47s-10.15-5.33-9.72-11c.11-1.5.57-2.92,1.28-4.17l19.27,1.98Z"/>
  <path class="cls-4" d="M1236.67,352.05c5.78.43,10.12,5.36,9.69,11-.43,5.67-5.47,9.89-11.25,9.49-5.78-.43-10.15-5.36-9.69-11,.43-5.67,5.44-9.89,11.25-9.49h0Z"/>
  <path class="cls-4" d="M1234.18,384.9c5.78.42,10.15,5.33,9.69,11-.43,5.64-5.44,9.89-11.25,9.47-5.78-.43-10.12-5.33-9.69-11,.43-5.64,5.47-9.89,11.25-9.47h0Z"/>
  <path class="cls-4" d="M1231.68,417.72c5.78.42,10.15,5.36,9.72,11-.43,5.64-5.47,9.89-11.25,9.47-5.81-.4-10.15-5.33-9.72-10.97.43-5.67,5.47-9.92,11.25-9.49h0Z"/>
  <path class="cls-4" d="M1229.19,450.56c5.81.4,10.15,5.33,9.72,10.97-.43,5.67-5.47,9.89-11.25,9.49-5.78-.43-10.15-5.36-9.72-11,.43-5.64,5.47-9.89,11.25-9.47h0Z"/>
  <path class="cls-4" d="M1226.72,483.38c5.78.42,10.12,5.33,9.69,11-.43,5.64-5.47,9.89-11.25,9.47s-10.15-5.33-9.69-11c.43-5.64,5.44-9.89,11.25-9.47h0Z"/>
  <path class="cls-4" d="M1224.23,516.19c5.78.42,10.15,5.36,9.69,11-.43,5.67-5.44,9.89-11.25,9.49-5.78-.43-10.12-5.36-9.69-11,.43-5.67,5.47-9.89,11.25-9.49h0Z"/>
  <path class="cls-4" d="M1221.73,549.04c5.78.42,10.15,5.33,9.72,11-.43,5.64-5.47,9.89-11.25,9.47-5.81-.43-10.15-5.33-9.72-11,.43-5.64,5.47-9.89,11.25-9.47h0Z"/>
  <path class="cls-4" d="M1219.24,581.86c3.26.26,6.04,1.9,7.79,4.28l-18.51,2.64c1.5-4.31,5.87-7.25,10.71-6.91h0Z"/>
  <path class="cls-4" d="M1286.84,157.76c4.96,1.13,8.47,5.64,8.08,10.74-.34,4.68-3.85,8.39-8.33,9.3l.26-20.04Z"/>
  <path class="cls-4" d="M1286.38,191.29c3.85,1.76,6.38,5.67,6.07,10.06-.31,3.94-2.83,7.17-6.29,8.64l.23-18.7Z"/>
  <path class="cls-4" d="M1285.93,225.32c2.66,2.04,4.28,5.3,4.02,8.84-.23,3.09-1.87,5.78-4.22,7.48l.2-16.32Z"/>
  <path class="cls-4" d="M1285.48,260.21c1.42,1.9,2.18,4.28,1.98,6.8-.17,2.07-.94,3.94-2.13,5.47l.14-12.27Z"/>
  <path class="cls-4" d="M1284.99,298.41c.03.45.03.94-.03,1.42v.14l.03-1.56Z"/>
  <path class="cls-4" d="M1282.33,330.01c.17.85.23,1.73.17,2.64-.45,5.67-5.47,9.92-11.28,9.49-5.78-.42-10.12-5.36-9.69-11,.08-1.13.34-2.21.77-3.2l20.04,2.07Z"/>
  <path class="cls-4" d="M1270.28,354.49c5.81.42,10.15,5.33,9.72,11-.43,5.64-5.47,9.89-11.25,9.47-5.81-.42-10.15-5.33-9.72-11,.43-5.64,5.47-9.89,11.25-9.47h0Z"/>
  <path class="cls-4" d="M1267.82,387.31c5.78.42,10.12,5.36,9.69,11-.43,5.67-5.47,9.89-11.25,9.49-5.78-.42-10.15-5.36-9.72-11,.43-5.67,5.47-9.89,11.28-9.49h0Z"/>
  <path class="cls-4" d="M1265.32,420.15c5.78.43,10.12,5.33,9.69,11-.43,5.64-5.47,9.89-11.25,9.47-5.78-.42-10.15-5.33-9.69-11,.43-5.64,5.47-9.89,11.25-9.47h0Z"/>
  <path class="cls-4" d="M1262.83,452.97c5.78.43,10.15,5.36,9.72,11-.45,5.64-5.47,9.89-11.28,9.47-5.78-.4-10.12-5.33-9.69-10.97.43-5.67,5.47-9.89,11.25-9.49h0Z"/>
  <path class="cls-4" d="M1260.34,485.81c5.81.4,10.15,5.33,9.72,10.97-.43,5.67-5.47,9.92-11.25,9.49-5.81-.42-10.15-5.36-9.72-11,.43-5.64,5.47-9.89,11.25-9.47h0Z"/>
  <path class="cls-4" d="M1257.87,518.63c5.78.43,10.12,5.33,9.69,11-.43,5.64-5.47,9.89-11.25,9.47-5.78-.42-10.15-5.33-9.72-11,.43-5.64,5.47-9.89,11.28-9.47h0Z"/>
  <path class="cls-4" d="M1255.38,551.48c5.78.4,10.12,5.33,9.69,10.97-.43,5.67-5.47,9.89-11.25,9.49-5.78-.42-10.15-5.36-9.69-11,.43-5.67,5.47-9.89,11.25-9.47h0Z"/>
  <path class="cls-4" d="M1326.54,176.27c-2.07,2.75-5.5,4.42-9.24,4.14-5.81-.4-10.15-5.33-9.72-10.97.17-2.32,1.11-4.39,2.55-5.98l16.41,12.81Z"/>
  <path class="cls-4" d="M1316.37,192.79c5.78.4,10.12,5.33,9.69,10.97-.43,5.67-5.47,9.92-11.25,9.49-5.78-.43-10.15-5.36-9.72-11,.45-5.64,5.47-9.89,11.28-9.47h0Z"/>
  <path class="cls-4" d="M1313.87,225.61c5.78.42,10.12,5.33,9.69,11-.43,5.64-5.47,9.89-11.25,9.47-5.78-.43-10.12-5.33-9.69-11,.43-5.64,5.47-9.89,11.25-9.47h0Z"/>
  <path class="cls-4" d="M1311.38,258.45c5.78.4,10.15,5.33,9.72,10.97-.45,5.67-5.47,9.89-11.28,9.49-5.78-.42-10.12-5.36-9.69-11,.43-5.67,5.47-9.89,11.25-9.47h0Z"/>
  <path class="cls-4" d="M1308.89,291.27c5.81.42,10.15,5.33,9.72,11-.43,5.64-5.47,9.89-11.25,9.47-5.81-.42-10.15-5.33-9.72-11,.43-5.64,5.47-9.89,11.25-9.47h0Z"/>
  <path class="cls-4" d="M1306.42,324.08c5.78.42,10.12,5.36,9.69,11-.43,5.64-5.47,9.89-11.25,9.47-5.78-.4-10.15-5.33-9.72-10.97.45-5.67,5.47-9.89,11.28-9.49h0Z"/>
  <path class="cls-4" d="M1303.93,356.93c5.78.4,10.12,5.33,9.69,11-.43,5.64-5.47,9.89-11.25,9.47-5.78-.42-10.12-5.33-9.69-11,.43-5.64,5.47-9.89,11.25-9.47h0Z"/>
  <path class="cls-4" d="M1301.43,389.75c5.78.42,10.15,5.33,9.72,11-.45,5.64-5.47,9.89-11.28,9.47-5.78-.4-10.12-5.33-9.69-10.97.43-5.67,5.47-9.92,11.25-9.49h0Z"/>
  <path class="cls-4" d="M1298.94,422.59c5.81.4,10.15,5.33,9.72,10.97-.43,5.67-5.47,9.89-11.25,9.49-5.81-.42-10.15-5.36-9.72-11,.43-5.67,5.47-9.89,11.25-9.47h0Z"/>
  <path class="cls-4" d="M1296.47,455.41c5.78.43,10.12,5.33,9.69,11-.43,5.64-5.47,9.89-11.25,9.47-5.78-.42-10.15-5.33-9.72-11,.45-5.64,5.47-9.89,11.28-9.47h0Z"/>
  <path class="cls-4" d="M1293.98,488.22c5.78.43,10.12,5.36,9.69,11-.43,5.67-5.47,9.89-11.25,9.47-5.78-.4-10.12-5.33-9.69-10.97.43-5.67,5.47-9.89,11.25-9.49h0Z"/>
  <path class="cls-4" d="M1291.48,521.07c5.78.43,10.15,5.33,9.72,11-.45,5.64-5.47,9.89-11.28,9.47-5.78-.42-10.12-5.33-9.69-11,.43-5.64,5.47-9.89,11.25-9.47h0Z"/>
  <path class="cls-4" d="M1288.99,553.88c5.81.43,10.15,5.36,9.72,11-.43,5.64-5.47,9.89-11.25,9.47-5.81-.4-10.15-5.33-9.72-10.97.43-5.67,5.47-9.92,11.25-9.49h0Z"/>
  <path class="cls-4" d="M1286.52,586.73c5.78.4,10.12,5.33,9.69,10.97-.43,5.67-5.47,9.89-11.25,9.49-.94-.08-1.84-.25-2.69-.57v-19.36c1.3-.45,2.75-.65,4.25-.54h0Z"/>
  <path class="cls-4" d="M1284.03,619.55c5.78.43,10.12,5.33,9.69,11-.43,5.64-5.47,9.89-11.25,9.47l-.2-.03v-20.4c.57-.06,1.16-.08,1.76-.03h0Z"/>
  <path class="cls-4" d="M1282.27,652.45c5.41.76,9.38,5.5,8.98,10.91-.4,4.9-4.22,8.73-8.98,9.41v-20.32Z"/>
  <path class="cls-4" d="M1282.27,685.94c4.08,1.64,6.83,5.7,6.49,10.26-.31,4-2.95,7.31-6.49,8.73v-18.99Z"/>
  <path class="cls-4" d="M1282.27,720.18c2.66,2.04,4.28,5.3,4,8.84-.23,3-1.76,5.61-4,7.34v-16.18Z"/>
  <path class="cls-4" d="M1282.27,755.71c.71,1.16,1.19,2.44,1.42,3.8l-1.42.99v-4.79Z"/>
  <path class="cls-4" d="M1349.98,195.2c.31.03.6.06.91.11l8.08,6.35c.6,1.39.85,2.95.74,4.53-.43,5.67-5.47,9.89-11.28,9.47-5.78-.4-10.12-5.33-9.69-10.97.43-5.67,5.47-9.89,11.25-9.49h0Z"/>
  <path class="cls-4" d="M1347.49,228.04c5.81.43,10.15,5.33,9.72,11-.43,5.64-5.47,9.89-11.25,9.47-5.81-.42-10.15-5.33-9.72-11,.43-5.64,5.47-9.89,11.25-9.47h0Z"/>
  <path class="cls-4" d="M1345.02,260.86c5.78.43,10.12,5.36,9.69,11-.43,5.64-5.47,9.89-11.25,9.47-5.78-.4-10.15-5.33-9.72-10.97.45-5.67,5.47-9.92,11.28-9.49h0Z"/>
  <path class="cls-4" d="M1342.53,293.7c5.78.4,10.12,5.33,9.69,10.97-.43,5.67-5.47,9.89-11.25,9.49-5.78-.42-10.12-5.36-9.69-11,.43-5.64,5.47-9.89,11.25-9.47h0Z"/>
  <path class="cls-4" d="M1340.03,326.52c5.78.43,10.15,5.33,9.72,11-.43,5.64-5.47,9.89-11.28,9.47-5.78-.43-10.12-5.33-9.69-11,.43-5.64,5.47-9.89,11.25-9.47h0Z"/>
  <path class="cls-4" d="M1337.54,359.34c5.81.43,10.15,5.36,9.72,11-.43,5.67-5.47,9.89-11.25,9.49-5.81-.43-10.15-5.36-9.72-11,.43-5.67,5.47-9.89,11.25-9.49h0Z"/>
  <path class="cls-4" d="M1335.07,392.18c5.78.43,10.12,5.33,9.69,11-.43,5.64-5.47,9.89-11.25,9.47-5.78-.43-10.15-5.33-9.72-11,.45-5.64,5.47-9.89,11.28-9.47h0Z"/>
  <path class="cls-4" d="M1332.58,425c5.78.43,10.12,5.36,9.69,11-.43,5.64-5.47,9.89-11.25,9.47-5.78-.4-10.12-5.33-9.69-10.97.43-5.67,5.47-9.92,11.25-9.49h0Z"/>
  <path class="cls-4" d="M1330.09,457.84c5.78.4,10.15,5.33,9.72,10.97-.43,5.67-5.47,9.92-11.28,9.49-5.78-.43-10.12-5.36-9.69-11s5.47-9.89,11.25-9.47h0Z"/>
  <path class="cls-4" d="M1327.59,490.66c5.81.43,10.15,5.33,9.72,11-.43,5.64-5.47,9.89-11.25,9.47-5.81-.43-10.15-5.33-9.72-11,.43-5.64,5.47-9.89,11.25-9.47h0Z"/>
  <path class="cls-4" d="M1325.13,523.48c5.78.43,10.12,5.36,9.69,11-.43,5.67-5.47,9.89-11.25,9.49-5.78-.43-10.15-5.36-9.72-11,.45-5.67,5.47-9.89,11.28-9.49h0Z"/>
  <path class="cls-4" d="M1322.63,556.32c5.78.43,10.12,5.33,9.69,11-.43,5.64-5.47,9.89-11.25,9.47-5.78-.43-10.12-5.33-9.69-11,.43-5.64,5.47-9.89,11.25-9.47h0Z"/>
  <path class="cls-4" d="M1320.14,589.14c5.78.43,10.15,5.36,9.72,11-.43,5.64-5.47,9.89-11.28,9.47-5.78-.4-10.12-5.33-9.69-10.97.43-5.67,5.47-9.89,11.25-9.49h0Z"/>
  <path class="cls-4" d="M1317.64,621.98c5.81.4,10.15,5.33,9.72,10.97-.43,5.67-5.47,9.92-11.25,9.49-5.81-.43-10.15-5.36-9.72-11,.43-5.64,5.47-9.89,11.25-9.47h0Z"/>
  <path class="cls-4" d="M1315.18,654.8c5.78.43,10.12,5.33,9.69,11-.43,5.64-5.47,9.89-11.25,9.47-5.78-.43-10.15-5.33-9.72-11,.45-5.64,5.47-9.89,11.28-9.47h0Z"/>
  <path class="cls-4" d="M1312.68,687.64c5.78.4,10.12,5.33,9.69,10.97-.43,5.67-5.47,9.89-11.25,9.49-5.78-.43-10.12-5.36-9.69-11,.43-5.67,5.47-9.89,11.25-9.47h0Z"/>
  <path class="cls-4" d="M1310.19,720.46c5.78.43,10.15,5.33,9.72,11-.11,1.39-.51,2.69-1.11,3.85l-8.08,5.55c-.68.08-1.36.11-2.1.06-5.78-.43-10.12-5.33-9.69-11,.43-5.64,5.47-9.89,11.25-9.47h0Z"/>
  <path class="cls-4" d="M1379.26,217.53c-2.21-.79-4.05-2.27-5.27-4.14l5.27,4.14Z"/>
  <path class="cls-4" d="M1381.13,230.45c5.78.43,10.15,5.36,9.69,11-.43,5.67-5.44,9.89-11.25,9.49-5.78-.42-10.12-5.36-9.69-11,.43-5.67,5.47-9.89,11.25-9.49h0Z"/>
  <path class="cls-4" d="M1378.64,263.3c5.78.43,10.15,5.33,9.72,11-.43,5.64-5.47,9.89-11.25,9.47-5.81-.42-10.15-5.33-9.72-11,.43-5.64,5.47-9.89,11.25-9.47h0Z"/>
  <path class="cls-4" d="M1376.14,296.11c5.81.43,10.15,5.36,9.72,11-.43,5.64-5.47,9.89-11.25,9.47-5.78-.4-10.15-5.33-9.72-10.97.43-5.67,5.47-9.89,11.25-9.49h0Z"/>
  <path class="cls-4" d="M1373.68,328.96c5.78.4,10.12,5.33,9.69,10.97-.43,5.67-5.47,9.92-11.25,9.49-5.78-.42-10.15-5.36-9.69-11,.43-5.64,5.44-9.89,11.25-9.47h0Z"/>
  <path class="cls-4" d="M1371.18,361.77c5.78.43,10.15,5.33,9.69,11-.43,5.64-5.44,9.89-11.25,9.47-5.78-.42-10.12-5.33-9.69-11,.43-5.64,5.47-9.89,11.25-9.47h0Z"/>
  <path class="cls-4" d="M1368.69,394.59c5.78.43,10.15,5.36,9.72,11-.43,5.67-5.47,9.89-11.25,9.49-5.81-.43-10.15-5.36-9.72-11,.43-5.67,5.47-9.89,11.25-9.49h0Z"/>
  <path class="cls-4" d="M1366.19,427.44c5.81.42,10.15,5.33,9.72,11-.43,5.64-5.47,9.89-11.25,9.47-5.81-.43-10.15-5.33-9.72-11,.43-5.64,5.47-9.89,11.25-9.47h0Z"/>
  <path class="cls-4" d="M1363.73,460.25c5.78.43,10.12,5.36,9.69,11-.43,5.64-5.47,9.89-11.25,9.47-5.78-.4-10.15-5.33-9.69-10.97.43-5.67,5.44-9.89,11.25-9.49h0Z"/>
  <path class="cls-4" d="M1361.23,493.1c5.78.4,10.15,5.33,9.69,10.97-.43,5.67-5.44,9.92-11.25,9.49-5.78-.43-10.12-5.36-9.69-11,.43-5.64,5.47-9.89,11.25-9.47h0Z"/>
  <path class="cls-4" d="M1358.74,525.91c5.78.42,10.15,5.33,9.72,11-.43,5.64-5.47,9.89-11.28,9.47-5.78-.43-10.12-5.33-9.69-11,.43-5.64,5.47-9.89,11.25-9.47h0Z"/>
  <path class="cls-4" d="M1356.25,558.76c5.81.4,10.15,5.33,9.72,10.97-.43,5.67-5.47,9.89-11.25,9.49-5.81-.43-10.15-5.36-9.72-11,.43-5.67,5.47-9.89,11.25-9.47h0Z"/>
  <path class="cls-4" d="M1353.78,591.58c5.78.42,10.12,5.33,9.69,11-.43,5.64-5.47,9.89-11.25,9.47-5.78-.43-10.15-5.33-9.69-11,.43-5.64,5.44-9.89,11.25-9.47h0Z"/>
  <path class="cls-4" d="M1351.29,624.39c5.78.42,10.15,5.36,9.69,11-.43,5.67-5.47,9.89-11.25,9.47-5.78-.4-10.12-5.33-9.69-10.97.43-5.67,5.47-9.89,11.25-9.49h0Z"/>
  <path class="cls-4" d="M1348.79,657.24c5.78.4,10.15,5.33,9.72,11-.43,5.64-5.47,9.89-11.28,9.47-5.78-.42-10.12-5.33-9.69-11,.43-5.64,5.47-9.89,11.25-9.47h0Z"/>
  <path class="cls-4" d="M1346.3,690.05c5.81.42,10.15,5.36,9.72,11-.43,5.64-5.47,9.89-11.25,9.47-5.81-.4-10.15-5.33-9.72-10.97.43-5.67,5.47-9.92,11.25-9.49h0Z"/>
  <path class="cls-4" d="M1421.35,250.43c-2.07,2.01-4.99,3.15-8.13,2.92-5.78-.43-10.15-5.33-9.72-11,.14-1.7.71-3.29,1.56-4.65l16.3,12.72Z"/>
  <path class="cls-4" d="M1412.28,265.73c5.78.4,10.12,5.33,9.69,10.97-.43,5.67-5.47,9.89-11.25,9.49-5.78-.43-10.15-5.36-9.69-11,.43-5.67,5.47-9.89,11.25-9.47h0Z"/>
  <path class="cls-4" d="M1409.78,298.55c5.78.43,10.15,5.33,9.72,11-.45,5.64-5.47,9.89-11.28,9.47-5.78-.43-10.12-5.33-9.69-11,.43-5.64,5.47-9.89,11.25-9.47h0Z"/>
  <path class="cls-4" d="M1407.29,331.37c5.81.43,10.15,5.36,9.72,11-.43,5.67-5.47,9.89-11.25,9.47-5.81-.4-10.15-5.33-9.72-10.97.43-5.67,5.47-9.89,11.25-9.49h0Z"/>
  <path class="cls-4" d="M1404.82,364.21c5.78.43,10.12,5.33,9.69,11-.43,5.64-5.47,9.89-11.25,9.47s-10.15-5.33-9.72-11c.43-5.64,5.47-9.89,11.28-9.47h0Z"/>
  <path class="cls-4" d="M1402.33,397.03c5.78.43,10.12,5.36,9.69,11-.43,5.64-5.47,9.89-11.25,9.47-5.78-.4-10.15-5.33-9.69-10.97.43-5.67,5.47-9.92,11.25-9.49h0Z"/>
  <path class="cls-4" d="M1399.84,429.87c5.78.4,10.15,5.33,9.72,10.97-.45,5.67-5.47,9.89-11.28,9.49-5.78-.43-10.12-5.36-9.69-11,.43-5.64,5.47-9.89,11.25-9.47h0Z"/>
  <path class="cls-4" d="M1397.34,462.69c5.81.43,10.15,5.33,9.72,11-.43,5.64-5.47,9.89-11.25,9.47-5.81-.43-10.15-5.33-9.72-11,.43-5.64,5.47-9.89,11.25-9.47h0Z"/>
  <path class="cls-4" d="M1394.88,495.51c5.78.43,10.12,5.36,9.69,11-.43,5.67-5.47,9.89-11.25,9.49-5.78-.43-10.15-5.36-9.72-11,.43-5.67,5.47-9.89,11.28-9.49h0Z"/>
  <path class="cls-4" d="M1392.38,528.35c5.78.42,10.12,5.33,9.69,11-.43,5.64-5.47,9.89-11.25,9.47-5.78-.43-10.15-5.33-9.69-11,.43-5.64,5.44-9.89,11.25-9.47h0Z"/>
  <path class="cls-4" d="M1389.89,561.17c5.78.42,10.15,5.36,9.69,11-.43,5.64-5.44,9.89-11.25,9.47-5.78-.4-10.12-5.33-9.69-10.97.43-5.67,5.47-9.92,11.25-9.49h0Z"/>
  <path class="cls-4" d="M1387.39,594.01c5.81.4,10.15,5.33,9.72,10.97-.43,5.67-5.47,9.89-11.25,9.49-5.81-.43-10.15-5.36-9.72-11,.43-5.64,5.47-9.89,11.25-9.47h0Z"/>
  <path class="cls-4" d="M1384.9,626.83c5.81.42,10.15,5.33,9.72,11-.43,5.64-5.47,9.89-11.25,9.47-5.78-.43-10.15-5.33-9.72-11,.43-5.64,5.47-9.89,11.25-9.47h0Z"/>
  <path class="cls-4" d="M1382.43,659.65c5.78.42,10.12,5.36,9.69,11-.43,5.67-5.47,9.89-11.25,9.49-5.78-.43-10.15-5.36-9.69-11,.43-5.67,5.44-9.89,11.25-9.49h0Z"/>
  <path class="cls-4" d="M1379.94,692.49l.85.08-11.96,8.25c.96-5.07,5.73-8.73,11.11-8.33h0Z"/>
  <path class="cls-4" d="M1455.56,277.21c.09.62.11,1.28.06,1.93-.43,5.64-5.47,9.89-11.25,9.47-5.81-.4-10.15-5.33-9.72-10.97.4-5.04,4.42-8.95,9.38-9.47l11.54,9.04Z"/>
  <path class="cls-4" d="M1443.43,300.99c5.78.4,10.12,5.33,9.69,10.97-.43,5.67-5.47,9.89-11.25,9.49-5.78-.43-10.15-5.36-9.72-11,.45-5.64,5.47-9.89,11.28-9.47h0Z"/>
  <path class="cls-4" d="M1440.93,333.8c5.78.42,10.12,5.33,9.69,11-.43,5.64-5.47,9.89-11.25,9.47-5.78-.43-10.12-5.33-9.69-11,.43-5.64,5.47-9.89,11.25-9.47h0Z"/>
  <path class="cls-4" d="M1438.44,366.62c5.78.42,10.15,5.36,9.72,11-.45,5.67-5.47,9.89-11.28,9.49-5.78-.42-10.12-5.36-9.69-11,.43-5.67,5.47-9.89,11.25-9.49h0Z"/>
  <path class="cls-4" d="M1435.94,399.47c5.81.42,10.15,5.33,9.72,11-.43,5.64-5.47,9.89-11.25,9.47-5.81-.42-10.15-5.33-9.72-11,.43-5.64,5.47-9.89,11.25-9.47h0Z"/>
  <path class="cls-4" d="M1433.48,432.28c5.78.42,10.12,5.36,9.69,11-.43,5.64-5.47,9.89-11.25,9.47-5.78-.4-10.15-5.33-9.72-10.97.43-5.67,5.47-9.92,11.28-9.49h0Z"/>
  <path class="cls-4" d="M1430.98,465.13c5.78.4,10.12,5.33,9.69,10.97-.43,5.67-5.47,9.92-11.25,9.49-5.78-.42-10.12-5.36-9.69-11,.43-5.64,5.47-9.89,11.25-9.47h0Z"/>
  <path class="cls-4" d="M1428.49,497.94c5.78.43,10.15,5.33,9.72,11-.45,5.64-5.47,9.89-11.28,9.47-5.78-.42-10.12-5.33-9.69-11,.43-5.64,5.47-9.89,11.25-9.47h0Z"/>
  <path class="cls-4" d="M1426,530.76c5.81.43,10.15,5.36,9.72,11-.43,5.67-5.47,9.89-11.25,9.49-5.81-.42-10.15-5.36-9.72-11,.43-5.67,5.47-9.89,11.25-9.49h0Z"/>
  <path class="cls-4" d="M1423.53,563.6c5.78.43,10.12,5.33,9.69,11-.43,5.64-5.47,9.89-11.25,9.47-5.78-.42-10.15-5.33-9.72-11,.43-5.64,5.47-9.89,11.28-9.47h0Z"/>
  <path class="cls-4" d="M1421.04,596.42c5.78.43,10.12,5.36,9.69,11-.43,5.64-5.47,9.89-11.25,9.47-5.78-.4-10.12-5.33-9.69-10.97.43-5.67,5.47-9.89,11.25-9.49h0Z"/>
  <path class="cls-4" d="M1418.54,629.27c5.78.4,10.15,5.33,9.72,10.97-.45,5.67-5.47,9.92-11.28,9.49-5.78-.42-10.12-5.36-9.69-11,.43-5.64,5.47-9.89,11.25-9.47h0Z"/>
  <path class="cls-4" d="M1416.05,662.08c2.21.17,4.19.96,5.78,2.21l-16.49,11.36c-.45-1.28-.65-2.66-.54-4.11.43-5.64,5.47-9.89,11.25-9.47h0Z"/>
  <path class="cls-4" d="M1477.04,303.4c5.78.42,10.15,5.36,9.72,11-.43,5.64-5.47,9.89-11.28,9.47-5.78-.4-10.12-5.33-9.69-10.97.43-5.67,5.47-9.89,11.25-9.49h0Z"/>
  <path class="cls-4" d="M1474.54,336.24c5.81.4,10.15,5.33,9.72,10.97-.43,5.67-5.47,9.92-11.25,9.49-5.81-.43-10.15-5.36-9.72-11,.43-5.64,5.47-9.89,11.25-9.47h0Z"/>
  <path class="cls-4" d="M1472.08,369.06c5.78.42,10.12,5.33,9.69,11-.43,5.64-5.47,9.89-11.25,9.47-5.78-.43-10.15-5.33-9.72-11,.45-5.64,5.47-9.89,11.28-9.47h0Z"/>
  <path class="cls-4" d="M1469.59,401.9c5.78.4,10.12,5.33,9.69,10.97-.43,5.67-5.47,9.89-11.25,9.49-5.78-.43-10.12-5.36-9.69-11,.43-5.67,5.47-9.89,11.25-9.47h0Z"/>
  <path class="cls-4" d="M1467.09,434.72c5.78.42,10.15,5.33,9.72,11-.43,5.64-5.47,9.89-11.28,9.47-5.78-.43-10.12-5.33-9.69-11,.43-5.64,5.47-9.89,11.25-9.47h0Z"/>
  <path class="cls-4" d="M1464.6,467.54c5.81.42,10.15,5.36,9.72,11-.43,5.64-5.47,9.89-11.25,9.47-5.81-.4-10.15-5.33-9.72-10.97.43-5.67,5.47-9.89,11.25-9.49h0Z"/>
  <path class="cls-4" d="M1462.13,500.38c5.78.4,10.12,5.33,9.69,10.97-.43,5.67-5.47,9.92-11.25,9.49-5.78-.42-10.15-5.36-9.72-11,.45-5.64,5.47-9.89,11.28-9.47h0Z"/>
  <path class="cls-4" d="M1459.64,533.2c5.78.42,10.12,5.33,9.69,11-.43,5.64-5.47,9.89-11.25,9.47-5.78-.4-10.12-5.33-9.69-11,.43-5.64,5.47-9.89,11.25-9.47h0Z"/>
  <path class="cls-4" d="M1457.14,566.04c5.78.4,10.15,5.33,9.72,10.97-.43,5.67-5.47,9.89-11.28,9.49-5.78-.42-10.12-5.36-9.69-11,.43-5.67,5.47-9.89,11.25-9.47h0Z"/>
  <path class="cls-4" d="M1454.65,598.86c5.81.43,10.15,5.33,9.72,11-.43,5.64-5.47,9.89-11.25,9.47-5.81-.42-10.15-5.33-9.72-11,.43-5.64,5.47-9.89,11.25-9.47h0Z"/>
  <path class="cls-4" d="M1452.18,631.67c3.85.28,7.06,2.58,8.64,5.72l-16.95,11.7c-2.04-2.04-3.2-4.87-2.98-7.93.45-5.67,5.47-9.89,11.28-9.49h0Z"/>
  <path class="cls-4" d="M1515.95,324.45c-1.93,1.33-4.31,2.04-6.83,1.84-5.78-.42-10.15-5.33-9.69-11,.08-1.11.34-2.18.77-3.17l15.76,12.33Z"/>
  <path class="cls-4" d="M1508.19,338.65c5.78.43,10.15,5.36,9.69,11-.43,5.67-5.44,9.89-11.25,9.47-5.78-.4-10.12-5.33-9.69-10.97.43-5.67,5.47-9.89,11.25-9.49h0Z"/>
  <path class="cls-4" d="M1505.69,371.5c5.78.43,10.15,5.33,9.72,11-.43,5.64-5.47,9.89-11.28,9.47-5.78-.42-10.12-5.33-9.69-11,.43-5.64,5.47-9.89,11.25-9.47h0Z"/>
  <path class="cls-4" d="M1503.2,404.31c5.81.43,10.15,5.36,9.72,11-.43,5.64-5.47,9.89-11.25,9.47-5.81-.4-10.15-5.33-9.72-10.97.43-5.67,5.47-9.92,11.25-9.49h0Z"/>
  <path class="cls-4" d="M1500.73,437.16c5.78.4,10.12,5.33,9.69,10.97-.43,5.67-5.47,9.89-11.25,9.49-5.78-.43-10.15-5.36-9.69-11,.43-5.64,5.44-9.89,11.25-9.47h0Z"/>
  <path class="cls-4" d="M1498.24,469.97c5.78.43,10.15,5.33,9.69,11-.43,5.64-5.47,9.89-11.25,9.47-5.78-.43-10.12-5.33-9.69-11,.43-5.64,5.47-9.89,11.25-9.47h0Z"/>
  <path class="cls-4" d="M1495.74,502.79c5.78.43,10.15,5.36,9.72,11-.43,5.67-5.47,9.89-11.28,9.49-5.78-.43-10.12-5.36-9.69-11,.43-5.67,5.47-9.89,11.25-9.49h0Z"/>
  <path class="cls-4" d="M1493.25,535.63c5.81.43,10.15,5.33,9.72,11-.43,5.64-5.47,9.89-11.25,9.47-5.81-.43-10.15-5.33-9.72-11,.43-5.64,5.47-9.89,11.25-9.47h0Z"/>
  <path class="cls-4" d="M1490.78,568.45c5.78.43,10.12,5.36,9.69,11-.43,5.64-5.47,9.89-11.25,9.47-5.78-.4-10.15-5.33-9.69-10.97.43-5.67,5.44-9.92,11.25-9.49h0Z"/>
  <path class="cls-4" d="M1488.29,601.3c5.61.4,9.86,5.04,9.72,10.49l-13.77,9.49c-4.48-1.45-7.57-5.7-7.2-10.51.43-5.64,5.47-9.89,11.25-9.47h0Z"/>
  <path class="cls-4" d="M1551.49,352.25c-.51,5.55-5.5,9.72-11.22,9.3-5.78-.42-10.15-5.33-9.72-11,.34-4.28,3.32-7.76,7.28-9.01l13.66,10.71Z"/>
  <path class="cls-4" d="M1539.33,373.9c5.78.43,10.12,5.36,9.69,11-.43,5.67-5.47,9.89-11.25,9.49-5.78-.42-10.15-5.36-9.69-11,.43-5.67,5.47-9.89,11.25-9.49h0Z"/>
  <path class="cls-4" d="M1536.84,406.75c5.78.43,10.15,5.33,9.69,11-.43,5.64-5.44,9.89-11.25,9.47-5.78-.42-10.12-5.33-9.69-11,.43-5.64,5.47-9.89,11.25-9.47h0Z"/>
  <path class="cls-4" d="M1534.35,439.57c5.81.43,10.15,5.36,9.72,11s-5.47,9.89-11.25,9.47c-5.81-.4-10.15-5.33-9.72-10.97.43-5.67,5.47-9.89,11.25-9.49h0Z"/>
  <path class="cls-4" d="M1531.88,472.41c5.78.4,10.12,5.33,9.69,10.97-.43,5.67-5.47,9.92-11.25,9.49-5.78-.42-10.15-5.36-9.72-11s5.47-9.89,11.28-9.47h0Z"/>
  <path class="cls-4" d="M1529.39,505.23c5.78.43,10.12,5.33,9.69,11-.43,5.64-5.47,9.89-11.25,9.47-5.78-.42-10.15-5.33-9.69-11,.43-5.64,5.44-9.89,11.25-9.47h0Z"/>
  <path class="cls-4" d="M1526.89,538.04c5.78.43,10.15,5.36,9.69,11-.43,5.67-5.44,9.89-11.25,9.49-5.78-.43-10.12-5.36-9.69-11,.43-5.67,5.47-9.89,11.25-9.49h0Z"/>
  <path class="cls-4" d="M1524.4,570.89c5.78.42,10.15,5.33,9.72,11-.43,5.64-5.47,9.89-11.25,9.47-5.81-.43-10.15-5.33-9.72-11,.43-5.64,5.47-9.89,11.25-9.47h0Z"/>
  <path class="cls-4" d="M1572.95,376.34c5.81.43,10.15,5.33,9.72,11-.43,5.64-5.47,9.89-11.25,9.47-5.81-.43-10.15-5.33-9.72-11,.43-5.64,5.47-9.89,11.25-9.47h0Z"/>
  <path class="cls-4" d="M1570.48,409.19c5.78.4,10.12,5.33,9.69,10.97-.43,5.67-5.47,9.89-11.25,9.49-5.78-.43-10.15-5.36-9.72-11,.43-5.67,5.47-9.89,11.28-9.47h0Z"/>
  <path class="cls-4" d="M1567.99,442c5.78.43,10.12,5.33,9.69,11-.43,5.64-5.47,9.89-11.25,9.47-5.78-.43-10.12-5.33-9.69-11,.43-5.64,5.47-9.89,11.25-9.47h0Z"/>
  <path class="cls-4" d="M1565.49,474.82c5.78.43,10.15,5.36,9.72,11-.45,5.64-5.47,9.89-11.28,9.47-5.78-.4-10.12-5.33-9.69-10.97.43-5.67,5.47-9.89,11.25-9.49h0Z"/>
  <path class="cls-4" d="M1563,507.66c5.81.4,10.15,5.33,9.72,11-.43,5.64-5.47,9.89-11.25,9.47-5.81-.43-10.15-5.33-9.72-11,.43-5.64,5.47-9.89,11.25-9.47h0Z"/>
  <path class="cls-4" d="M1560.53,540.48c5.78.43,10.12,5.36,9.69,11-.43,5.64-5.47,9.89-11.25,9.47-5.78-.4-10.15-5.33-9.72-10.97.43-5.67,5.47-9.92,11.28-9.49h0Z"/>
  <path class="cls-4" d="M1610.33,398.28c-1.62.74-3.4,1.11-5.3.96-5.78-.43-10.12-5.33-9.69-11,.03-.51.11-1.02.23-1.53l14.77,11.56Z"/>
  <path class="cls-4" d="M1604.1,411.59c5.78.42,10.15,5.36,9.72,11-.43,5.64-5.47,9.89-11.28,9.47-5.78-.4-10.12-5.33-9.69-10.97.43-5.67,5.47-9.92,11.25-9.49h0Z"/>
  <path class="cls-4" d="M1601.6,444.44c5.81.4,10.15,5.33,9.72,10.97-.43,5.67-5.47,9.89-11.25,9.49-5.81-.43-10.15-5.36-9.72-11,.43-5.64,5.47-9.89,11.25-9.47h0Z"/>
  <path class="cls-4" d="M1599.14,477.26c5.78.42,10.12,5.33,9.69,11-.43,5.64-5.47,9.89-11.25,9.47-5.78-.43-10.15-5.33-9.72-11,.45-5.64,5.47-9.89,11.28-9.47h0Z"/>
  <path class="cls-4" d="M1596.64,510.07c5.78.42,10.12,5.36,9.69,11-.43,5.67-5.47,9.89-11.25,9.49-5.78-.42-10.12-5.36-9.69-11,.43-5.67,5.47-9.89,11.25-9.49h0Z"/>
  <path class="cls-4" d="M1594.15,542.92c1.02.06,1.98.28,2.89.6l-14.17,9.78c0-.28,0-.6.03-.91.43-5.64,5.47-9.89,11.25-9.47h0Z"/>
  <path class="cls-4" d="M1647.09,427.01c-1.33,4.62-5.84,7.85-10.91,7.48-5.78-.43-10.15-5.33-9.69-11,.26-3.63,2.44-6.69,5.5-8.27l15.11,11.79Z"/>
  <path class="cls-4" d="M1635.24,446.85c5.78.42,10.15,5.36,9.69,11-.43,5.64-5.47,9.89-11.25,9.47-5.78-.4-10.12-5.33-9.69-10.97.43-5.67,5.47-9.89,11.25-9.49h0Z"/>
  <path class="cls-4" d="M1632.75,479.69c5.78.4,10.15,5.33,9.72,10.97-.43,5.67-5.47,9.92-11.28,9.49-5.78-.43-10.12-5.36-9.69-11,.43-5.64,5.47-9.89,11.25-9.47h0Z"/>
  <path class="cls-4" d="M1630.26,512.51c2.81.2,5.24,1.45,6.97,3.32l-17.03,11.73c-.88-1.64-1.33-3.57-1.19-5.58.43-5.64,5.47-9.89,11.25-9.47h0Z"/>
  <path class="cls-4" d="M1668.86,449.29c5.81.43,10.15,5.33,9.72,11-.43,5.64-5.47,9.89-11.25,9.47-5.78-.42-10.15-5.33-9.72-11,.43-5.64,5.47-9.89,11.25-9.47h0Z"/>
  <path class="cls-4" d="M1666.39,482.1c4.45.34,8.02,3.32,9.27,7.23l-16.33,11.25c-2.78-2.04-4.48-5.36-4.19-8.98.43-5.67,5.44-9.89,11.25-9.49h0Z"/>
  <path class="cls-4" d="M1700.6,472.15c-5.5-.6-9.58-5.21-9.38-10.6l11.59,9.07-2.21,1.53Z"/>
</svg>